<?xml version="1.0" encoding="UTF-8" standalone="no"?>
<!-- <svg viewBox="0 0 160 160" version="1.1" id="svg_null"> -->

<svg
   xmlns:dc="http://purl.org/dc/elements/1.1/"
   xmlns:cc="http://creativecommons.org/ns#"
   xmlns:rdf="http://www.w3.org/1999/02/22-rdf-syntax-ns#"
   xmlns:svg="http://www.w3.org/2000/svg"
   xmlns="http://www.w3.org/2000/svg"
   xmlns:sodipodi="http://sodipodi.sourceforge.net/DTD/sodipodi-0.dtd"
   xmlns:inkscape="http://www.inkscape.org/namespaces/inkscape"
   width="150"
   height="150"
   version="1.1"
   id="svg3747"
   sodipodi:docname="robot.svg"
   inkscape:version="0.92.4 (5da689c313, 2019-01-14)">
  <metadata
     id="metadata23">
    <rdf:RDF>
      <cc:Work
         rdf:about="">
        <dc:format>image/svg+xml</dc:format>
        <dc:type
           rdf:resource="http://purl.org/dc/dcmitype/StillImage" />
      </cc:Work>
    </rdf:RDF>
  </metadata>
  <rect
     style="display:none;fill:#1f4e5f;fill-rule:evenodd;stroke:none;stroke-width:1"
     display="none"
     height="30"
     width="30"
     y="43"
     x="65"
     id="icon.primary" />
  <g
     inkscape:groupmode="layer"
     id="layer1"
     inkscape:label="Layer 1"
     transform="translate(0,-10)">
    <path
       id="path3769"
       d="m 54.143235,131.52254 a 4.3971153,4.3971153 0 1 0 4.397119,4.39711 4.3971153,4.3971153 0 0 0 -4.397119,-4.39711 z m 0,-6.16308 a 10.548335,10.548335 0 1 0 10.548332,10.55427 10.564929,10.564929 0 0 0 -10.548332,-10.54835 z m 0,17.58965 a 7.0365693,7.0365693 0 1 1 7.035383,-7.03538 7.0436811,7.0436811 0 0 1 -7.035383,7.0413 z m 38.695796,-11.43248 a 4.3971153,4.3971153 0 1 0 4.397133,4.3971 4.3971153,4.3971153 0 0 0 -4.397133,-4.39119 z M 54.143235,117.45058 c -10.183278,0 -18.469064,8.28461 -18.469064,18.46907 0,10.18448 8.285786,18.46789 18.469064,18.46789 10.1833,0 18.467893,-8.2846 18.467893,-18.46789 0,-10.18328 -8.284593,-18.46907 -18.467893,-18.46907 z m 0,31.66043 a 13.192531,13.192531 0 1 1 13.191347,-13.19136 13.205568,13.205568 0 0 1 -13.191347,13.19136 z m 38.695796,-23.74563 a 10.548335,10.548335 0 1 0 10.548349,10.55427 10.564929,10.564929 0 0 0 -10.548349,-10.55427 z m 0,17.58965 a 7.0365693,7.0365693 0 1 1 7.0354,-7.03538 7.0436811,7.0436811 0 0 1 -7.0354,7.03538 z m 0,-25.50445 c -10.183276,0 -18.469065,8.28461 -18.469065,18.46907 0,10.18448 8.285789,18.46789 18.469065,18.46789 10.183309,0 18.467899,-8.2846 18.467899,-18.46789 0,-10.18328 -8.2846,-18.46907 -18.467899,-18.46907 z m 0,31.66043 A 13.192531,13.192531 0 1 1 106.0304,135.91965 13.205568,13.205568 0 0 1 92.839031,149.11101 Z M 61.841144,85.839944 h -5.276521 v 17.436746 h 5.276521 z M 133.37546,113.61644 V 88.253027 h -2.49841 V 72.424591 H 90.159291 V 62.170176 h 23.903239 a 6.1630723,6.1630723 0 0 0 6.15597,-6.154768 v -1.408014 c 6.59566,-1.6012 11.46805,-7.317444 11.46805,-14.089751 0,-6.755638 -4.87239,-12.470727 -11.46805,-14.070744 v -4.098465 a 6.1630723,6.1630723 0 0 0 -6.15597,-6.15592 H 36.002462 a 6.1630723,6.1630723 0 0 0 -6.155943,6.15592 v 4.203954 c -6.366936,1.758841 -11.022431,7.348249 -11.022431,13.965255 0,6.617034 4.661418,12.224234 11.028356,13.985444 v 1.512321 a 6.1630723,6.1630723 0 0 0 6.155963,6.155985 H 59.905723 V 72.425774 H 19.18796 v 15.827253 h -2.498423 v 25.363413 h 8.161327 v 2.16418 c -4.080676,1.60006 -6.982042,6.41909 -6.982042,12.27636 0,7.19423 4.37934,12.84056 9.990097,12.84056 v -5.27656 c -2.515,0 -4.713567,-3.53548 -4.713567,-7.564 0,-2.49722 0.843861,-4.78348 2.075307,-6.1915 v 7.24753 h 5.276523 v -13.8942 h -0.369783 v -1.60237 h 7.669468 V 88.253027 H 35.791501 V 77.704705 H 42.56376 V 115.5128 h 64.94339 V 77.704705 h 6.77225 v 10.548322 h -2.01127 v 25.363413 h 7.66947 v 1.60122 h -0.36979 v 13.89654 h 5.27653 v -7.24754 c 1.23142,1.40802 2.07529,3.69431 2.07529,6.19153 0,4.02971 -2.19855,7.56397 -4.71357,7.56397 v 5.27653 c 5.61079,0 9.99012,-5.64629 9.99012,-12.8405 0,-5.8573 -2.90139,-10.67633 -6.98207,-12.27639 v -2.16536 z M 120.21968,31.955745 c 3.62318,1.389039 6.19153,4.713576 6.19153,8.565481 0,3.851911 -2.56835,7.194199 -6.19153,8.583239 z M 29.846519,48.904172 c -3.394438,-1.476736 -5.751808,-4.677991 -5.751808,-8.390047 0,-3.693118 2.35737,-6.894372 5.751808,-8.372327 z m -5.38204,28.800533 h 6.044567 v 10.548322 h -6.044567 z m 8.059423,30.639935 H 21.966079 V 93.529558 h 10.55426 z m 3.48213,-51.447444 A 0.89364554,0.89364554 0 0 1 35.126613,56.017774 V 22.357937 a 0.89364554,0.89364554 0 0 1 0.879419,-0.879421 h 78.056498 a 0.89364554,0.89364554 0 0 1 0.87942,0.879421 v 33.657471 a 0.89364554,0.89364554 0 0 1 -0.87942,0.879455 z m 48.88028,5.540843 v 9.990137 H 65.182243 V 62.434488 Z M 102.22471,110.24097 H 47.840318 V 77.704705 h 54.384392 z m 17.32531,-32.536265 h 6.0505 v 10.548322 h -6.0505 z m -2.00536,30.636385 V 93.526007 h 10.54835 V 108.34109 Z M 72.388309,85.839944 H 67.117692 V 103.27669 H 72.39423 Z M 52.384395,27.747056 A 11.432499,11.432499 0 1 0 63.8169,39.18549 11.445537,11.445537 0 0 0 52.384395,27.747056 Z m 0,17.588465 a 6.1559616,6.1559616 0 1 1 6.155959,-6.150031 6.1630723,6.1630723 0 0 1 -6.155959,6.150031 z m 30.562904,40.504423 h -5.27652 v 17.436746 h 5.27652 z M 96.356728,27.747056 A 11.432499,11.432499 0 1 0 107.78923,39.18549 11.445537,11.445537 0 0 0 96.356728,27.747056 Z m 0,17.588465 a 6.1559616,6.1559616 0 1 1 6.155972,-6.150031 6.1630723,6.1630723 0 0 1 -6.155972,6.150031 z m -2.855152,40.504423 h -5.27773 v 17.436746 h 5.27773 z"
       inkscape:connector-curvature="0"
       style="fill:#1f4e5f;fill-opacity:1;stroke-width:0.11852064" />
  </g>
  <path
     style="fill:#212931;fill-opacity:1;stroke-width:0.51317686"
     d="m 23.83796,129.44075 c -3.752157,-2.28814 -5.576551,-5.98603 -5.604724,-11.36024 -0.02417,-4.60766 1.24486,-7.63659 4.380634,-10.45592 1.503111,-1.35143 2.528908,-2.71026 2.528908,-3.34996 0,-1.0032 -0.278697,-1.07625 -4.105418,-1.07625 H 16.931947 V 90.882129 78.565887 h 1.282938 1.282942 V 70.611643 62.657402 H 39.76832 60.038805 V 57.29334 51.929281 L 46.653327,51.776713 33.267854,51.624146 31.771196,49.948221 c -1.085658,-1.21569 -1.49718,-2.202159 -1.498575,-3.592236 -0.0018,-1.773214 -0.165946,-1.983752 -2.19839,-2.819336 -4.74982,-1.952769 -8.327421,-6.593408 -8.916316,-11.565671 -0.671422,-5.669097 2.795758,-11.593119 8.31268,-14.203038 l 2.80395,-1.326483 v -2.783293 c 0,-3.300245 0.702475,-5.0554882 2.516686,-6.288334 1.239896,-0.8425697 4.089636,-0.9149739 41.154288,-1.0456452 31.178621,-0.1099064 40.252561,0.00147 41.805161,0.5131773 2.79532,0.9212893 4.32983,3.3572339 4.32983,6.8733139 v 2.732319 l 2.54729,1.095813 c 3.15282,1.356313 6.72561,5.089278 7.95707,8.313818 1.28287,3.359106 0.8765,8.228811 -0.94624,11.339058 -1.69055,2.884697 -5.08228,5.812859 -7.6105,6.570334 -1.56331,0.468378 -1.94762,0.830664 -1.94762,1.835974 0,1.942473 -1.40456,4.442185 -3.03823,5.40723 -1.29099,0.762604 -3.14303,0.875512 -14.36067,0.875512 H 89.80307 v 5.388357 5.388361 h 20.52707 20.52707 v 7.954242 c 0,7.612122 0.0442,7.954243 1.02637,7.954243 0.99785,0 1.02635,0.342131 1.02635,12.316243 v 12.31625 h -3.84881 -3.84884 l 0.0189,1.41123 c 0.0148,1.04542 0.52749,1.76224 1.97924,2.76531 3.06209,2.11566 4.41599,5.39792 4.41599,10.70559 0,3.5585 -0.22525,4.81951 -1.22275,6.8457 -1.34538,2.73286 -4.62421,5.47055 -6.55188,5.47055 -1.05966,0 -1.20593,-0.24278 -1.20593,-2.00139 0,-1.59305 0.35709,-2.35848 1.75014,-3.75154 2.35498,-2.35498 3.17134,-5.42656 2.38092,-8.95847 -0.32708,-1.46152 -0.92851,-2.93435 -1.33651,-3.27298 -0.6352,-0.52715 -0.74185,-0.0901 -0.74185,3.03941 v 3.65507 h -2.62072 -2.62072 l 0.18322,-7.95424 0.18321,-7.95424 h -3.72069 -3.72071 V 90.88218 c 0,-11.974127 0.0284,-12.316243 1.02634,-12.316243 0.96417,0 1.02637,-0.342131 1.02637,-5.644949 v -5.644946 h -3.59225 -3.59223 V 86.26359 105.25113 H 74.920977 42.590831 V 86.240141 67.229146 l -3.463944,0.151727 -3.463944,0.151726 -0.145647,5.516655 c -0.138664,5.25287 -0.09573,5.516651 0.898058,5.516651 1.020458,0 1.043716,0.273956 1.043716,12.293761 v 12.293764 l -3.692542,0.15076 -3.692541,0.15076 0.142113,7.82594 0.142113,7.82595 h -2.351095 -2.351096 v -3.59223 c 0,-2.16898 -0.21368,-3.59224 -0.53936,-3.59224 -0.904899,0 -2.026521,3.40834 -2.026521,6.15812 0,3.38513 1.114373,5.9637 3.054489,7.06781 1.350197,0.76839 1.558045,1.17686 1.560857,3.06743 0.003,1.92119 -0.134309,2.18078 -1.151403,2.17909 -0.635054,-0.001 -1.857276,-0.43038 -2.716052,-0.95409 z M 102.37591,83.954242 V 67.53258 L 75.049232,67.399809 47.722561,67.267037 v 16.687247 16.687246 l 27.326671,-0.13277 27.326678,-0.13278 z m -69.535477,6.910525 v -7.715011 l -5.516655,0.145647 -5.516653,0.145647 -0.142029,7.569362 -0.142029,7.569358 h 5.658662 5.65867 z m 95.450897,0.01725 v -7.697709 h -5.38835 -5.38836 v 7.697655 7.697653 h 5.38836 5.38835 z M 30.676787,73.049233 30.531135,67.53258 H 27.45207 24.373012 l -0.145648,5.516653 -0.145646,5.516654 h 3.370372 3.370376 z m 95.048653,-0.128315 v -5.64493 h -3.07905 -3.07905 v 5.644945 5.64495 h 3.07905 3.07905 z M 85.184476,57.525629 V 52.393861 H 75.177525 65.170579 v 5.131768 5.131773 H 75.177525 85.184476 Z M 114.82709,29.169458 114.96213,11.33341 75.055972,11.464835 35.149813,11.596258 35.01443,28.784038 c -0.07445,9.453277 -0.02325,17.479506 0.1134,17.836067 0.198067,0.516105 8.334812,0.621485 39.906587,0.516824 L 114.69222,47.00546 Z m -84.552545,1.41438 c 0,-6.062951 -0.168428,-8.467415 -0.593031,-8.467415 -1.115943,0 -3.880427,2.506471 -4.723112,4.282298 -1.231637,2.595489 -1.083026,6.344132 0.345011,8.703138 1.065118,1.759467 3.596313,3.93732 4.586232,3.946021 0.211683,0.0018 0.384886,-3.806959 0.384886,-8.464042 z m 93.319815,6.543008 c 1.88119,-1.79434 3.14719,-4.581269 3.15457,-6.94437 0.009,-2.587084 -2.59685,-6.487382 -5.2572,-7.871401 l -1.41122,-0.734187 v 8.737187 c 0,9.916218 0.0858,10.08258 3.51385,6.812771 z"
     id="path4540"
     inkscape:connector-curvature="0" />
  <path
     style="fill:#212931;fill-opacity:1;stroke-width:0.51317686"
     d="M 50.03186,40.102978 C 41.419812,38.05091 38.291,27.541117 44.492945,21.497596 c 3.831439,-3.733564 8.256306,-4.461438 12.938301,-2.128301 6.32733,3.153038 8.04751,11.34279 3.532854,16.819848 -2.566103,3.113127 -7.25207,4.790743 -10.93224,3.913835 z m 5.382685,-5.410789 c 2.176299,-1.125406 3.084728,-2.735139 3.084728,-5.4661 0,-6.047337 -7.108995,-8.600792 -11.016506,-3.956975 -2.30405,2.738206 -1.425459,7.713802 1.657481,9.386586 1.819491,0.987247 4.406642,1.002289 6.274297,0.03671 z"
     id="path4542"
     inkscape:connector-curvature="0" />
  <path
     style="fill:#212931;fill-opacity:1;stroke-width:0.51317686"
     d="m 93.597843,40.018129 c -2.671965,-0.614773 -6.220734,-3.630251 -7.445446,-6.326586 -3.33037,-7.332152 2.273875,-15.680536 10.526295,-15.680536 4.451448,0 9.068048,3.586134 10.366488,8.05261 2.42132,8.329058 -4.89572,15.922073 -13.447337,13.954512 z m 7.100367,-6.493391 c 3.29574,-3.29574 1.99907,-8.817413 -2.412015,-10.27116 -4.836627,-1.593997 -9.450662,3.030314 -7.854835,7.872316 1.449445,4.397845 6.976472,5.689233 10.26685,2.398844 z"
     id="path4544"
     inkscape:connector-curvature="0" />
  <path
     style="fill:#212931;fill-opacity:1;stroke-width:0.51317686"
     d="M 88.263539,84.467419 V 76 h 2.565887 2.56588 v 8.467419 8.46742 h -2.56588 -2.565887 z"
     id="path4570"
     inkscape:connector-curvature="0" />
  <path
     style="fill:#212931;fill-opacity:1;stroke-width:0.51317686"
     d="M 78,84.467419 V 76 h 2.309296 2.309297 v 8.467419 8.46742 H 80.309296 78 Z"
     id="path4572"
     inkscape:connector-curvature="0" />
  <path
     style="fill:#212931;fill-opacity:1;stroke-width:0.51317686"
     d="M 67.223282,84.467419 V 76 h 2.565886 2.565886 v 8.467419 8.46742 h -2.565886 -2.565886 z"
     id="path4574"
     inkscape:connector-curvature="0" />
  <path
     style="fill:#212931;fill-opacity:1;stroke-width:0.51317686"
     d="M 56.959746,84.467419 V 76 h 2.309294 2.309296 v 8.467419 8.46742 H 59.26904 56.959746 Z"
     id="path4576"
     inkscape:connector-curvature="0" />
  <path
     style="fill:#212931;fill-opacity:1;stroke-width:0.51317686"
     d="m 50.158059,143.7268 c -5.241083,-1.32067 -10.626721,-5.79236 -12.804173,-10.63127 -0.846175,-1.88045 -1.10802,-3.50452 -1.13838,-7.06078 -0.03393,-3.96777 0.151137,-5.02499 1.312881,-7.50265 1.83077,-3.90448 4.411699,-6.62722 8.260346,-8.7142 3.048197,-1.65293 3.485698,-1.74435 8.348538,-1.74435 4.862842,0 5.300343,0.0914 8.34854,1.74435 3.848647,2.08698 6.429582,4.80972 8.260348,8.7142 1.155031,2.46333 1.349226,3.55781 1.331195,7.50265 -0.01809,3.92955 -0.225485,5.04064 -1.390858,7.4475 -3.655452,7.54954 -12.90512,12.16551 -20.528437,10.24455 z m 9.36757,-5.67391 c 10.094871,-4.56959 10.70494,-18.36638 1.050533,-23.75809 -2.362838,-1.31958 -3.361053,-1.56587 -6.414711,-1.58271 -3.120824,-0.0172 -4.001336,0.19841 -6.425228,1.57321 -7.966942,4.51885 -9.322623,15.06338 -2.74379,21.34127 3.609179,3.44408 9.947238,4.50221 14.533196,2.42632 z"
     id="path4578"
     inkscape:connector-curvature="0" />
  <path
     style="fill:#212931;fill-opacity:1;stroke-width:0.25658846"
     d="m 51.009102,135.82447 c -2.800815,-0.92932 -5.129031,-2.99209 -6.373551,-5.64689 -0.609491,-1.30015 -0.682629,-1.7586 -0.682629,-4.27865 0,-2.52006 0.07314,-2.97849 0.682629,-4.27865 3.344658,-7.13479 12.831258,-8.20023 17.778844,-1.99675 4.052603,5.08131 2.108592,12.89676 -3.908285,15.7124 -2.194433,1.0269 -5.270363,1.22734 -7.497008,0.48854 z m 5.563882,-3.20962 c 1.531008,-0.56445 3.013545,-1.83872 3.801599,-3.26755 0.676584,-1.22671 0.769227,-1.64415 0.765323,-3.44837 -0.0034,-1.60203 -0.125706,-2.28103 -0.556741,-3.09264 -0.781178,-1.47089 -2.039649,-2.64275 -3.636988,-3.38666 -1.183835,-0.55134 -1.636315,-0.62397 -3.24438,-0.52077 -2.880927,0.18485 -4.900938,1.57761 -6.059178,4.1776 -1.540159,3.45731 0.03206,7.6264 3.494779,9.26609 1.436183,0.68012 3.983367,0.80772 5.435586,0.27229 z"
     id="path4580"
     inkscape:connector-curvature="0" />
  <path
     style="fill:#212931;fill-opacity:1;stroke-width:0.25658846"
     d="m 52.041563,129.57191 c -2.700458,-1.83512 -2.804924,-5.29709 -0.217659,-7.2133 1.037958,-0.76875 2.97021,-0.86728 4.245866,-0.21648 2.734754,1.39516 3.097052,5.29113 0.664582,7.14646 -1.301733,0.99288 -3.45717,1.12302 -4.692789,0.28334 z"
     id="path4582"
     inkscape:connector-curvature="0" />
  <path
     style="fill:#212931;fill-opacity:1;stroke-width:0.25658846"
     d="m 89.11249,143.8815 c -6.871531,-1.59015 -12.10413,-6.54937 -13.972711,-13.2427 -0.72042,-2.58057 -0.736756,-6.54902 -0.03811,-9.26497 2.33437,-9.07521 11.32597,-15.0363 20.477858,-13.57602 9.768833,1.55871 16.554943,10.43425 15.449843,20.20683 -0.46988,4.1554 -2.25044,7.77714 -5.34586,10.87382 -3.42853,3.42992 -7.285972,5.09247 -12.208981,5.26206 -1.832039,0.0632 -3.362714,-0.0279 -4.362007,-0.25903 z m 7.624995,-5.27765 c 3.401635,-1.05067 6.493545,-3.74455 8.043305,-7.00787 4.18933,-8.82154 -2.18341,-18.90527 -11.947768,-18.90527 -6.502191,0 -11.998641,4.64421 -13.097066,11.06631 -1.079458,6.31121 2.780195,12.65636 8.985729,14.77227 2.237864,0.76304 5.682981,0.79508 8.0158,0.0745 z"
     id="path4584"
     inkscape:connector-curvature="0" />
  <path
     style="fill:#212931;fill-opacity:1;stroke-width:0.25658846"
     d="m 89.827357,135.93296 c -4.890872,-1.59387 -8.155696,-6.79796 -7.277682,-11.60056 0.643867,-3.52185 3.270385,-6.86116 6.3615,-8.08789 2.108417,-0.83673 5.735283,-0.83673 7.843685,0 3.091131,1.22673 5.71764,4.56604 6.36152,8.08789 0.78398,4.28831 -1.70378,8.93801 -5.882971,10.99542 -1.431777,0.70485 -1.967772,0.82389 -3.989398,0.88588 -1.473341,0.0451 -2.734521,-0.0584 -3.416654,-0.28074 z m 5.956438,-3.58294 c 2.434751,-1.13885 4.233695,-3.87999 4.233695,-6.45109 0,-2.59919 -1.939984,-5.47662 -4.408266,-6.53844 -1.687634,-0.72601 -4.377353,-0.63956 -6.001059,0.1929 -2.969234,1.52225 -4.534944,5.13325 -3.608119,8.32142 1.184003,4.07283 5.96683,6.26056 9.783749,4.47523 z"
     id="path4586"
     inkscape:connector-curvature="0" />
  <path
     style="fill:#212931;fill-opacity:1;stroke-width:0.25658846"
     d="m 90.652022,129.51017 c -2.40301,-1.44601 -2.812555,-4.60769 -0.838872,-6.47608 1.145594,-1.08447 1.775566,-1.36887 3.032216,-1.36887 2.313981,0 4.203039,1.89244 4.203039,4.21058 0,3.35587 -3.527984,5.36044 -6.396383,3.63437 z"
     id="path4588"
     inkscape:connector-curvature="0" />
  <path
     style="fill:#ffffff;fill-opacity:0;stroke-width:0.05521297"
     d="M -0.00797314,75.003334 V 0.02412249 H 74.998845 150.00566 V 75.003334 149.98255 H 74.998845 -0.00797314 Z M 47.762693,92.208882 c 0.904717,-2.122005 1.644941,-3.867425 1.644941,-3.878711 0,-0.01128 -0.232559,-0.02051 -0.516797,-0.02051 h -0.516798 l -0.844502,2.017316 c -0.464477,1.109527 -0.862862,2.028668 -0.885301,2.042538 -0.02244,0.01387 -0.421812,-0.893926 -0.887496,-2.017322 L 44.910042,88.30966 h -0.545366 c -0.414572,0 -0.538581,0.01655 -0.517076,0.06902 0.01556,0.03796 0.526095,1.255736 1.134523,2.706175 l 1.106233,2.637159 -0.498831,1.117323 c -0.274357,0.614526 -0.511948,1.149319 -0.527979,1.188421 -0.02286,0.05575 0.08799,0.06767 0.513529,0.05521 l 0.542676,-0.01588 z m 77.356507,0.03206 c 0.90299,-2.11956 1.6418,-3.871191 1.6418,-3.892515 0,-0.02132 -0.22982,-0.03872 -0.51072,-0.03865 h -0.51072 l -0.85096,2.042764 c -0.46803,1.123517 -0.86619,2.042764 -0.88481,2.042764 -0.0186,0 -0.29245,-0.627358 -0.60853,-1.394128 -0.31608,-0.76677 -0.69705,-1.686066 -0.84659,-2.04288 l -0.27189,-0.648752 h -0.51854 c -0.32177,0 -0.51853,0.02177 -0.51853,0.05735 0,0.03154 0.4996,1.250132 1.11021,2.707969 l 1.11023,2.650615 -0.25125,0.563404 c -0.13817,0.309866 -0.37566,0.842914 -0.52775,1.184545 l -0.27652,0.621145 h 0.53638 0.53638 l 1.64181,-3.853743 z m -99.542337,1.83884 c 0.688039,-0.145768 1.163103,-0.459046 1.458771,-0.961981 0.131917,-0.224391 0.148735,-0.309397 0.148384,-0.749991 -4.42e-4,-0.577776 -0.10649,-0.841418 -0.453509,-1.127648 -0.277956,-0.22926 -0.610446,-0.347074 -1.542635,-0.546591 -0.936471,-0.20044 -1.209132,-0.324636 -1.325825,-0.60392 -0.417322,-0.998791 1.165341,-1.403293 2.627391,-0.671517 0.23805,0.11915 0.448323,0.216634 0.467274,0.216634 0.01895,0 0.03445,-0.232264 0.03445,-0.516136 V 88.602493 L 26.78412,88.51095 c -0.954577,-0.422059 -2.418691,-0.424566 -3.140747,-0.0054 -0.310722,0.180392 -0.702979,0.629058 -0.782753,0.895317 -0.103045,0.343933 -0.08035,0.886262 0.04904,1.171498 0.259204,0.571443 0.619537,0.766284 1.936307,1.046992 0.414412,0.08835 0.857305,0.213597 0.984207,0.278334 0.429897,0.219317 0.498908,0.729121 0.146415,1.081617 -0.225867,0.225865 -0.492647,0.29879 -1.094464,0.299177 -0.587787,5.52e-4 -1.169833,-0.167853 -1.71193,-0.494808 -0.203039,-0.122457 -0.382945,-0.222652 -0.399792,-0.222652 -0.01685,0 -0.03063,0.247818 -0.03063,0.550711 0,0.633801 -0.03331,0.593407 0.683607,0.829006 0.687049,0.225788 1.497086,0.278075 2.153486,0.13901 z m 36.19158,-0.02157 c 0.870223,-0.270841 1.435372,-0.880774 1.697837,-1.832375 0.138265,-0.501284 0.138679,-1.665758 7.73e-4,-2.118869 -0.338389,-1.111702 -1.012771,-1.738005 -2.064401,-1.917215 -1.161091,-0.197861 -2.264428,0.348377 -2.74488,1.358929 -0.247437,0.520448 -0.328186,0.931089 -0.326358,1.659658 0.0037,1.467936 0.598116,2.442108 1.724394,2.826009 0.480497,0.163778 1.22956,0.174214 1.712646,0.02386 z m 6.470596,0.01497 c 1.1075,-0.328848 1.814452,-1.489762 1.817285,-2.984217 0.0036,-1.890376 -0.935225,-3.048821 -2.373263,-2.928496 -0.442704,0.03704 -0.877704,0.195664 -1.319292,0.481076 l -0.337031,0.217832 v -1.37912 -1.379121 h -0.497281 -0.497282 l 0.01417,3.961531 0.01417,3.96153 0.428027,0.01613 c 0.407257,0.01534 0.430998,0.0096 0.489336,-0.118438 l 0.06131,-0.134565 0.304097,0.134483 c 0.167251,0.07397 0.394276,0.155827 0.504492,0.18191 0.34168,0.08085 1.069961,0.06487 1.391262,-0.03053 z m 6.353698,-0.02 c 1.148789,-0.357002 1.771315,-1.376145 1.771801,-2.900624 5.52e-4,-1.036701 -0.265635,-1.764916 -0.847188,-2.31963 -0.395275,-0.377027 -0.783742,-0.560941 -1.363208,-0.645401 -1.162631,-0.169454 -2.241801,0.368221 -2.709168,1.349792 -0.45633,0.958381 -0.442582,2.385647 0.03201,3.322838 0.282833,0.558529 0.891247,1.053988 1.500649,1.222039 0.407345,0.112337 1.206448,0.09798 1.615101,-0.02901 z m 5.918262,-0.0233 0.285208,-0.06319 0.01603,-0.454364 c 0.0088,-0.249899 -0.0067,-0.454364 -0.03446,-0.454364 -0.02778,0 -0.156137,0.03727 -0.285241,0.08282 -0.130259,0.04596 -0.422098,0.08272 -0.655693,0.08262 -0.501698,0 -0.707852,-0.100383 -0.867081,-0.421176 -0.09649,-0.194383 -0.107511,-0.368557 -0.122716,-1.938974 l -0.01671,-1.725406 h 0.996743 0.996737 V 88.723757 88.30966 H 79.82998 78.836146 V 87.481465 86.653271 H 78.33923 77.842313 v 0.828194 0.828195 h -0.331278 -0.331278 v 0.414097 0.414097 h 0.327938 0.327943 l 0.01947,1.863438 c 0.01688,1.614654 0.03247,1.897592 0.116765,2.119262 0.129275,0.339951 0.422964,0.674017 0.718199,0.816936 0.420187,0.20341 1.152195,0.240552 1.820924,0.0924 z m 8.336722,0.02522 c 1.093211,-0.376122 1.750262,-1.49631 1.747827,-2.979828 -0.0018,-1.092526 -0.289161,-1.907735 -0.854708,-2.424611 -0.402281,-0.367663 -0.73224,-0.480789 -1.380456,-0.473285 -0.57347,0.0066 -0.920511,0.117161 -1.457391,0.464169 l -0.337031,0.217832 v -1.37912 -1.379121 H 86.068681 85.5714 l 0.01417,3.961531 0.01417,3.96153 0.428028,0.01613 c 0.407206,0.01534 0.431003,0.0096 0.489308,-0.118382 l 0.06129,-0.13451 0.256067,0.113562 c 0.638638,0.283226 1.456126,0.345799 2.013297,0.154105 z m 11.466269,-0.07942 c 0.25812,-0.07562 0.56248,-0.17672 0.67636,-0.224667 l 0.20705,-0.08718 v -0.523783 c 0,-0.288079 -0.0152,-0.523784 -0.0338,-0.523784 -0.0186,0 -0.25308,0.109769 -0.52108,0.243926 -1.161485,0.581442 -2.357999,0.531861 -2.996615,-0.124169 -0.266871,-0.274154 -0.47847,-0.754352 -0.494062,-1.121226 l -0.01258,-0.296035 2.092687,-0.01448 2.09269,-0.01447 -0.0356,-0.592871 c -0.0569,-0.9482 -0.26083,-1.501655 -0.70814,-1.922008 -0.4199,-0.394601 -0.805227,-0.556618 -1.455498,-0.611997 -1.42079,-0.121004 -2.601232,0.721043 -2.922715,2.084864 -0.107395,0.455612 -0.107328,1.410526 0,1.866408 0.243484,1.032952 1.030556,1.758097 2.13751,1.969325 0.569411,0.108654 1.387154,0.06397 1.973663,-0.107853 z m 14.68665,0 c 0.25812,-0.07562 0.56248,-0.17672 0.67636,-0.224667 l 0.20705,-0.08718 v -0.523783 c 0,-0.288079 -0.0232,-0.523784 -0.0516,-0.523784 -0.0283,0 -0.17121,0.07341 -0.31747,0.163138 -0.61813,0.379203 -1.55018,0.570184 -2.18182,0.447071 -0.87137,-0.169841 -1.38135,-0.727056 -1.50596,-1.645452 l -0.0393,-0.289868 h 2.11148 2.11147 l -0.0318,-0.621146 c -0.0662,-1.295517 -0.51814,-2.028872 -1.46364,-2.375289 -0.47317,-0.173369 -1.39346,-0.169742 -1.90776,0.0075 -0.75383,0.259804 -1.39326,0.924403 -1.64118,1.705771 -0.18292,0.576506 -0.20936,1.513796 -0.0594,2.106706 0.34871,1.378955 1.431,2.091236 3.07208,2.021816 0.36623,-0.01549 0.71014,-0.06964 1.02144,-0.160841 z m -85.469675,-2.068316 0.02761,-2.116838 0.138032,-0.111729 c 0.07592,-0.06145 0.311953,-0.200373 0.524523,-0.308717 0.340919,-0.173761 0.445084,-0.199446 0.883408,-0.217838 0.572334,-0.02401 0.799992,0.05722 1.000048,0.356831 0.177029,0.265121 0.200929,0.528443 0.236919,2.610276 l 0.03293,1.904847 h 0.46931 0.469311 l 0.01578,-1.96006 c 0.02024,-2.514349 -0.03083,-2.836489 -0.536648,-3.38524 -0.663724,-0.720054 -1.945277,-0.698102 -2.998956,0.05137 l -0.262262,0.186548 v -1.407842 -1.407837 h -0.496916 -0.496917 v 3.938523 c 0,2.166193 0.01749,3.956015 0.03886,3.977388 0.02137,0.02137 0.238773,0.03172 0.483113,0.023 l 0.444254,-0.01585 z m 6.612251,-0.742515 0.0143,-2.859353 -0.511218,0.01588 -0.511218,0.01588 -0.01436,2.788255 c -0.0079,1.53354 -0.0021,2.820284 0.0129,2.859436 0.02006,0.05236 0.155221,0.06696 0.511282,0.05521 l 0.484016,-0.01597 z m 2.816027,0.739252 c 0.01323,-1.938511 0.02269,-2.126367 0.110426,-2.193264 0.05278,-0.04024 0.294726,-0.177857 0.537663,-0.305808 0.390245,-0.205541 0.493966,-0.235417 0.890304,-0.256475 0.531644,-0.02824 0.791686,0.04339 0.983008,0.270759 0.245844,0.29217 0.266073,0.465893 0.301546,2.58961 l 0.03366,2.015273 h 0.46931 0.46931 l 0.01578,-1.96006 c 0.02024,-2.514349 -0.03083,-2.836489 -0.536647,-3.38524 -0.663725,-0.720054 -1.945278,-0.698102 -2.998956,0.05137 L 38.972383,88.91682 V 88.613237 88.30966 h -0.496917 -0.496917 v 2.834264 c 0,1.55885 0.01749,2.851755 0.03886,2.873128 0.02137,0.02137 0.238774,0.03172 0.483114,0.023 l 0.444253,-0.01585 z m 16.287836,0.09594 0.01448,-2.024157 0.298785,-0.198325 c 0.562875,-0.373615 0.773219,-0.441086 1.383858,-0.443912 0.303672,-0.0014 0.632879,0.01546 0.731572,0.03748 l 0.179442,0.04003 V 88.8914 88.371636 l -0.255895,-0.03837 c -0.665449,-0.09979 -1.375245,0.09639 -2.017063,0.557491 -0.146899,0.10554 -0.27946,0.191887 -0.294572,0.191887 -0.01511,0 -0.02748,-0.17392 -0.02748,-0.38649 V 88.30966 h -0.496917 -0.496917 v 2.834264 c 0,1.55885 0.01749,2.851755 0.03886,2.873128 0.02137,0.02137 0.238774,0.03172 0.483114,0.023 l 0.444253,-0.01585 z m 37.778905,0.02269 v -2.029077 l 0.262152,-0.1773 c 0.144188,-0.09752 0.411231,-0.246592 0.593434,-0.331277 0.289244,-0.134444 0.397826,-0.153978 0.855801,-0.153978 0.288488,0 0.605272,0.01802 0.703965,0.04003 l 0.179443,0.04003 V 88.8914 88.371636 l -0.254063,-0.0381 c -0.634369,-0.09513 -1.281526,0.07386 -1.918292,0.50092 -0.203531,0.136503 -0.381891,0.248182 -0.396351,0.248182 -0.01447,0 -0.0263,-0.17392 -0.0263,-0.38649 V 88.30966 H 92.528856 92.03194 v 2.834264 c 0,1.55885 0.01656,2.850833 0.03681,2.871074 0.02024,0.02025 0.243854,0.03681 0.496917,0.03681 h 0.460106 v -2.029077 z m 12.279156,-0.151836 c 0.39168,-1.184318 0.72206,-2.12846 0.73419,-2.098093 0.0121,0.03037 0.34045,0.999355 0.72962,2.153306 l 0.70757,2.098093 0.41312,0.01597 c 0.28729,0.0111 0.43051,-0.0057 0.47023,-0.05521 0.0314,-0.03915 0.37218,-1.288632 0.75726,-2.776621 0.38508,-1.48799 0.71275,-2.748916 0.72815,-2.802059 0.0252,-0.08692 -0.0217,-0.09662 -0.46673,-0.09662 -0.34516,0 -0.50257,0.02087 -0.52066,0.06902 -0.0143,0.03796 -0.23304,0.994557 -0.48618,2.125771 -0.25315,1.13122 -0.47791,2.038093 -0.49948,2.015273 -0.0216,-0.02281 -0.34471,-0.979411 -0.7181,-2.125771 l -0.6789,-2.084289 h -0.41686 -0.41686 l -0.68749,2.132385 c -0.48776,1.512896 -0.69999,2.102367 -0.73054,2.029077 -0.0408,-0.09794 -0.9832,-4.053344 -0.9832,-4.126711 0,-0.01911 -0.23604,-0.03475 -0.52452,-0.03475 -0.28849,0 -0.52453,0.01045 -0.52453,0.02322 0,0.07057 1.44264,5.491327 1.48955,5.597027 0.0526,0.118443 0.0836,0.125521 0.48419,0.110426 l 0.42803,-0.01613 z m 13.05036,0.135498 0.0145,-2.017802 0.36514,-0.240071 c 0.53782,-0.353595 0.92752,-0.461763 1.53837,-0.427012 0.2733,0.01555 0.5404,0.04536 0.59354,0.06625 0.0879,0.03456 0.0966,-0.0095 0.0966,-0.489071 v -0.527052 l -0.25589,-0.03837 c -0.66545,-0.09979 -1.37525,0.09639 -2.01707,0.557491 -0.1469,0.10554 -0.27946,0.191887 -0.29457,0.191887 -0.0151,0 -0.0275,-0.17392 -0.0275,-0.38649 V 88.30966 h -0.49691 -0.49692 v 2.834264 c 0,1.55885 0.0175,2.851755 0.0389,2.873128 0.0214,0.02137 0.23877,0.03172 0.48311,0.023 l 0.44426,-0.01585 z m -82.155497,-5.118468 0.01587,-0.51072 H 35.63407 35.052262 v 0.487713 c 0,0.268246 0.0174,0.505121 0.03867,0.526389 0.02127,0.02127 0.27594,0.03163 0.565933,0.02301 l 0.527258,-0.01567 z M 55.039357,77.515524 V 76.991001 H 53.024084 51.00881 V 57.99774 39.004479 h 2.017346 2.017345 l -0.01588,-0.51072 -0.01588,-0.51072 h -2.51219 -2.51219 l -0.01388,20.028504 -0.01388,20.028505 h 2.539872 2.539872 z M 100.0242,58.011543 100.01032,37.983039 h -2.51219 -2.51219 l -0.01587,0.51072 -0.01588,0.51072 h 2.017349 2.017344 V 57.99774 76.991001 H 96.97361 94.958336 v 0.524523 0.524524 h 2.539874 2.53987 z M 71.962132,72.848146 c 1.036342,-0.320263 1.844892,-0.968916 2.372048,-1.902965 0.867943,-1.537874 0.574894,-3.528865 -0.702115,-4.770279 -0.531044,-0.516236 -1.09425,-0.837349 -1.811157,-1.032626 -0.444254,-0.121016 -1.445652,-0.135758 -1.870096,-0.02754 -1.398357,0.356555 -2.481807,1.355655 -2.909829,2.683301 -0.207722,0.644313 -0.241203,1.494449 -0.08376,2.126803 0.380025,1.526374 1.579085,2.694062 3.092097,3.011194 0.512272,0.107378 1.415186,0.06589 1.912815,-0.08789 z m 8.337158,0 c 0.683796,-0.211317 1.114507,-0.4755 1.660249,-1.018348 0.819713,-0.81538 1.183219,-1.680832 1.183219,-2.817071 0,-1.118537 -0.36525,-1.998003 -1.157993,-2.788255 -0.522198,-0.520559 -0.901583,-0.768261 -1.490181,-0.972957 -0.865568,-0.301016 -1.788751,-0.301016 -2.654319,0 -0.586633,0.204012 -0.96546,0.451371 -1.490049,0.972957 -0.792538,0.787994 -1.158125,1.668172 -1.158125,2.788255 0,1.118195 0.364295,1.998224 1.156286,2.793252 0.635645,0.638085 1.312048,1.004721 2.128885,1.15394 0.446259,0.08152 1.382356,0.0241 1.822028,-0.111773 z M 65.198543,69.514033 v -0.575352 l -0.156827,-0.03444 c -0.209953,-0.04611 -0.526643,-0.3805 -0.68162,-0.719706 -0.10559,-0.231116 -0.126256,-0.370457 -0.126907,-0.855801 -7.18e-4,-0.53449 0.01214,-0.605593 0.16481,-0.911014 l 0.165595,-0.331278 0.02761,0.745375 0.02761,0.745375 0.570212,0.01578 0.570217,0.01579 -0.01809,-1.686011 -0.01808,-1.68601 0.814392,3.3e-5 0.814391,3.8e-5 V 61.476157 58.715508 H 67.130997 66.910145 V 57.611249 56.50699 h 0.717415 0.71741 l 0.01416,4.071956 0.01416,4.071957 h 6.98444 6.984441 l 0.01416,-4.071957 0.01416,-4.071956 h 0.689803 0.689809 v 1.100924 1.10093 l -0.207049,0.01713 -0.207049,0.01714 -0.01432,2.746845 -0.01432,2.746845 h 0.820813 0.820813 l -0.01905,0.648753 c -0.01048,0.356814 -0.02862,1.102509 -0.04031,1.657096 -0.02476,1.174644 -0.08781,1.077563 0.682499,1.050829 l 0.46931,-0.01629 0.02761,-0.743338 c 0.0265,-0.713583 0.03124,-0.737783 0.118316,-0.604504 0.289521,0.443106 0.358658,1.295103 0.150296,1.852008 -0.139308,0.372334 -0.486383,0.771762 -0.714064,0.821768 l -0.16189,0.03556 v 0.575352 0.575347 h 0.191175 c 0.768007,0 1.614134,-0.822485 1.881845,-1.829261 0.287638,-1.081721 0.04222,-2.292536 -0.612218,-3.02042 -0.13801,-0.153497 -0.343016,-0.335038 -0.455567,-0.403424 -0.256691,-0.155949 -0.285578,-0.198281 -0.286622,-0.420027 l -8.45e-4,-0.179443 h 0.855801 0.855801 v -2.757473 -2.757474 l -0.234655,-0.01698 -0.234655,-0.01698 -0.01461,-1.670192 -0.01461,-1.670193 h -4.388625 -4.388619 v -1.076653 -1.076652 h 2.564686 c 1.645518,0 2.66545,-0.02161 2.845842,-0.0603 0.582834,-0.124996 1.049389,-0.700503 1.049389,-1.294444 0,-0.290099 0.0021,-0.293759 0.207049,-0.359281 0.780711,-0.249602 1.539188,-0.879433 1.90821,-1.584552 0.46322,-0.885106 0.475681,-1.830263 0.03627,-2.750967 -0.325878,-0.68282 -1.127167,-1.376284 -1.857232,-1.607321 l -0.285445,-0.09033 -0.01823,-0.644683 C 85.04871,44.196668 85.03749,44.141314 84.880509,43.887667 84.777106,43.7206 84.61038,43.553982 84.443139,43.450582 l -0.270267,-0.167098 -8.75559,-0.01511 c -9.724069,-0.01678 -9.009718,-0.04364 -9.406987,0.353634 -0.32336,0.323358 -0.390792,0.522621 -0.41556,1.228029 -0.01982,0.564441 -0.03286,0.630756 -0.128922,0.655879 -0.400228,0.104661 -0.920566,0.432885 -1.315979,0.830107 -0.609386,0.612179 -0.937042,1.369236 -0.937042,2.16509 0,1.109384 0.717642,2.229853 1.763442,2.753291 0.250771,0.125515 0.490341,0.22821 0.532374,0.22821 0.05329,0 0.07643,0.07217 0.07643,0.238437 0,0.580321 0.306741,1.091159 0.802962,1.33722 0.206651,0.102473 0.365687,0.109241 2.937717,0.125017 l 2.719238,0.01668 v 1.073777 1.073776 h -4.361824 -4.361825 v 1.683996 1.683995 h -0.276065 -0.276064 v 2.760649 2.760648 h 0.883407 0.883408 v 0.145834 c 0,0.09833 -0.06419,0.201743 -0.19705,0.317475 -0.639918,0.557414 -0.744569,0.672682 -0.928539,1.022782 -0.272735,0.519012 -0.380406,0.976054 -0.378308,1.605836 0.0019,0.582358 0.109581,1.080269 0.327408,1.514414 0.362473,0.72244 1.030599,1.231045 1.631996,1.242342 l 0.207048,0.0039 v -0.575347 z"
     id="path4602"
     inkscape:connector-curvature="0" />
</svg>
