<?xml version="1.0" encoding="UTF-8" standalone="no"?>
<!-- <svg viewBox="0 0 160 160" version="1.1" id="svg_null"> -->

<svg
   xmlns:dc="http://purl.org/dc/elements/1.1/"
   xmlns:cc="http://creativecommons.org/ns#"
   xmlns:rdf="http://www.w3.org/1999/02/22-rdf-syntax-ns#"
   xmlns:svg="http://www.w3.org/2000/svg"
   xmlns="http://www.w3.org/2000/svg"
   xmlns:sodipodi="http://sodipodi.sourceforge.net/DTD/sodipodi-0.dtd"
   xmlns:inkscape="http://www.inkscape.org/namespaces/inkscape"
   width="150"
   height="150"
   version="1.1"
   id="svg3747"
   sodipodi:docname="shiny robot.svg"
   inkscape:version="0.92.4 (5da689c313, 2019-01-14)">
  <metadata
     id="metadata3753">
    <rdf:RDF>
      <cc:Work
         rdf:about="">
        <dc:format>image/svg+xml</dc:format>
        <dc:type
           rdf:resource="http://purl.org/dc/dcmitype/StillImage" />
        <dc:title />
      </cc:Work>
    </rdf:RDF>
  </metadata>
  <defs
     id="defs3751" />
  <sodipodi:namedview
     pagecolor="#ffffff"
     bordercolor="#666666"
     borderopacity="1"
     objecttolerance="10"
     gridtolerance="10"
     guidetolerance="10"
     inkscape:pageopacity="0"
     inkscape:pageshadow="2"
     inkscape:window-width="3840"
     inkscape:window-height="2080"
     id="namedview3749"
     showgrid="true"
     inkscape:zoom="18.111687"
     inkscape:cx="52.256623"
     inkscape:cy="73.251936"
     inkscape:window-x="-11"
     inkscape:window-y="-11"
     inkscape:window-maximized="1"
     inkscape:current-layer="svg3747">
    <inkscape:grid
       type="xygrid"
       id="grid3789" />
  </sodipodi:namedview>
  <rect
     style="fill:#f4e7d3;fill-rule:evenodd;stroke:none;stroke-width:0.9375"
     height="150"
     width="150"
     y="-1.0658141e-14"
     x="0"
     id="background.accent" />
  <g
     style="fill:none;fill-rule:evenodd;stroke:none;stroke-width:1"
     transform="translate(18,81)"
     id="group">
    <rect
       height="22"
       width="128"
       y="0"
       x="0"
       id="Rectangle-14" />
    <text
       style="font-style:normal;font-weight:400;font-size:10.39447308px;font-family:'Cutive Mono';fill:#1f4e5f"
       font-style="normal"
       data-text-alignment="C"
       letter-spacing="NaN"
       font-weight="400"
       font-size="10.394473424503031"
       id="headerText.primary">
      <tspan
         id="tspan3736"
         y="13"
         x="4.2109375">shiny robot brewery</tspan>
    </text>
  </g>
  <rect
     style="display:none;fill:#1f4e5f;fill-rule:evenodd;stroke:none;stroke-width:1"
     display="none"
     height="30"
     width="30"
     y="43"
     x="65"
     id="icon.primary" />
  <path
     style="fill:#1f4e5f;fill-rule:nonzero;stroke:none;stroke-width:1"
     inkscape:connector-curvature="0"
     id="shape.primary"
     d="m 99,39 h -4 v -1 h 5 v 40 h -5 v -1 h 4 z m 0,38 V 39 h -4 v -1 h 5 V 78 H 95 V 77 Z M 51,77 V 39 h 4 v -1 h -5 v 40 h 5 v -1 z m 0,-38 h 4 v -1 h -5 v 40 h 5 v -1 h -4 z" />
  <g
     inkscape:groupmode="layer"
     id="layer1"
     inkscape:label="Layer 1"
     transform="translate(0,-10)">
    <path
       id="path3769"
       d="m 70.842116,78.071012 a 0.94617576,0.94617576 0 1 0 0.946177,0.946175 0.94617576,0.94617576 0 0 0 -0.946177,-0.946175 z m 0,-1.326179 a 2.2698016,2.2698016 0 1 0 2.269801,2.27108 2.2733721,2.2733721 0 0 0 -2.269801,-2.269806 z m 0,3.784958 a 1.5141362,1.5141362 0 1 1 1.513881,-1.513878 1.5156665,1.5156665 0 0 1 -1.513881,1.515152 z m 8.326601,-2.460052 a 0.94617576,0.94617576 0 1 0 0.946178,0.946174 0.94617576,0.94617576 0 0 0 -0.946178,-0.944901 z m -8.326601,-3.026746 c -2.191248,0 -3.974192,1.782688 -3.974192,3.974194 0,2.191505 1.782944,3.973938 3.974192,3.973938 2.191253,0 3.97394,-1.782688 3.97394,-3.973938 0,-2.191251 -1.782687,-3.974194 -3.97394,-3.974194 z m 0,6.812723 a 2.8387823,2.8387823 0 1 1 2.838528,-2.838529 2.8415876,2.8415876 0 0 1 -2.838528,2.838529 z m 8.326601,-5.109609 a 2.2698016,2.2698016 0 1 0 2.269803,2.27108 2.2733721,2.2733721 0 0 0 -2.269803,-2.27108 z m 0,3.784958 a 1.5141362,1.5141362 0 1 1 1.513883,-1.513878 1.5156665,1.5156665 0 0 1 -1.513883,1.513878 z m 0,-5.488072 c -2.191248,0 -3.974192,1.782688 -3.974192,3.974194 0,2.191505 1.782944,3.973938 3.974192,3.973938 2.191254,0 3.973941,-1.782688 3.973941,-3.973938 0,-2.191251 -1.782687,-3.974194 -3.973941,-3.974194 z m 0,6.812723 a 2.8387823,2.8387823 0 1 1 2.83853,-2.838529 2.8415876,2.8415876 0 0 1 -2.83853,2.838529 z M 72.49856,68.240983 h -1.135407 v 3.752056 h 1.135407 z m 15.392828,5.976974 v -5.457724 h -0.537609 v -3.405979 h -8.761691 v -2.206556 h 5.143524 a 1.3261762,1.3261762 0 0 0 1.324647,-1.324389 v -0.302978 c 1.419264,-0.344548 2.467705,-1.574575 2.467705,-3.031847 0,-1.453685 -1.048441,-2.683464 -2.467705,-3.027757 V 54.578815 A 1.3261762,1.3261762 0 0 0 83.735612,53.254178 H 66.938566 a 1.3261762,1.3261762 0 0 0 -1.324642,1.324637 v 0.904611 c -1.370044,0.378469 -2.371818,1.581204 -2.371818,3.005058 0,1.42386 1.003049,2.630423 2.373093,3.009402 v 0.325423 a 1.3261762,1.3261762 0 0 0 1.324646,1.324651 h 5.142249 v 2.206548 h -8.76169 v 3.405725 h -0.537613 v 5.457724 h 1.756163 v 0.465692 c -0.878084,0.344301 -1.502403,1.381265 -1.502403,2.641639 0,1.548062 0.942351,2.763045 2.149679,2.763045 v -1.135416 c -0.54118,0 -1.01427,-0.760767 -1.01427,-1.627629 0,-0.537356 0.181583,-1.029314 0.446567,-1.332292 v 1.559531 h 1.135407 v -2.989768 h -0.07957 v -0.344802 h 1.650324 v -5.457724 h -0.431517 v -2.269799 h 1.457262 v 8.135584 h 13.974586 v -8.135584 h 1.457261 v 2.269799 h -0.432791 v 5.457724 h 1.650324 v 0.344555 h -0.07957 v 2.99027 h 1.135411 V 75.99325 c 0.264979,0.302978 0.446563,0.794944 0.446563,1.3323 0,0.867117 -0.473086,1.627622 -1.014271,1.627622 v 1.135409 c 1.207333,0 2.149684,-1.214976 2.149684,-2.763031 0,-1.260382 -0.624324,-2.297345 -1.502409,-2.641646 V 74.217957 Z M 85.060514,56.646126 c 0.77964,0.298895 1.332298,1.014272 1.332298,1.843129 0,0.828858 -0.552658,1.548055 -1.332298,1.84695 z m -19.44659,3.64698 c -0.730419,-0.317766 -1.23768,-1.006615 -1.23768,-1.805379 0,-0.794689 0.507261,-1.483538 1.23768,-1.801566 z m -1.158113,6.197328 h 1.300676 v 2.269799 h -1.300676 z m 1.734235,6.593133 h -2.271843 v -3.187925 h 2.271076 z M 66.939334,62.013053 A 0.19229556,0.19229556 0 0 1 66.7501,61.823818 V 54.58086 a 0.19229556,0.19229556 0 0 1 0.189234,-0.189235 h 16.796278 a 0.19229556,0.19229556 0 0 1 0.189235,0.189235 v 7.242449 a 0.19229556,0.19229556 0 0 1 -0.189235,0.189242 z m 10.518109,1.192284 v 2.149688 H 73.217501 V 63.204573 Z M 81.188336,73.49162 H 69.485848 v -7.001186 h 11.702488 z m 3.72808,-7.001186 h 1.301952 v 2.269799 H 84.916416 Z M 84.4849,73.082802 v -3.187924 h 2.269806 v 3.187924 z m -9.71679,-4.841819 h -1.134137 v 3.752056 h 1.135411 z M 70.463647,55.740496 a 2.4600569,2.4600569 0 1 0 2.460058,2.461334 2.4628623,2.4628623 0 0 0 -2.460058,-2.461334 z m 0,3.784704 a 1.3246461,1.3246461 0 1 1 1.324646,-1.32337 1.3261762,1.3261762 0 0 1 -1.324646,1.32337 z m 6.576557,8.715783 h -1.135407 v 3.752056 h 1.135407 z M 79.92566,55.740496 a 2.4600569,2.4600569 0 1 0 2.460055,2.461334 2.4628623,2.4628623 0 0 0 -2.460055,-2.461334 z m 0,3.784704 a 1.3246461,1.3246461 0 1 1 1.324648,-1.32337 1.3261762,1.3261762 0 0 1 -1.324648,1.32337 z m -0.614376,8.715783 h -1.135667 v 3.752056 h 1.135667 z"
       inkscape:connector-curvature="0"
       style="fill:#1f4e5f;fill-opacity:1;stroke-width:0.02550339" />
  </g>
  <path
     style="fill:#212931;fill-opacity:1;stroke-width:0.11042593"
     d="M 50.025544,57.999359 V 38.067477 h 2.484583 2.484584 v 0.441704 0.441704 h -2.04288 -2.04288 v 19.048474 19.048474 h 2.04288 2.04288 v 0.441704 0.441704 h -2.484584 -2.484583 z"
     id="path4534"
     inkscape:connector-curvature="0" />
  <path
     style="fill:#212931;fill-opacity:1;stroke-width:0.11042593"
     d="M 50.025544,57.999359 V 38.067477 h 2.484583 2.484584 v 0.441704 0.441704 h -2.04288 -2.04288 v 19.048474 19.048474 h 2.04288 2.04288 v 0.441704 0.441704 h -2.484584 -2.484583 z"
     id="path4536"
     inkscape:connector-curvature="0" />
  <path
     style="fill:#212931;fill-opacity:1;stroke-width:0.11042593"
     d="m 95.079326,77.489537 v -0.441704 h 1.987667 1.987667 V 57.999359 38.950885 h -1.987667 -1.987667 v -0.441704 -0.441704 h 2.429371 2.429371 v 19.931882 19.931882 h -2.429371 -2.429371 z"
     id="path4538"
     inkscape:connector-curvature="0" />
  <path
     style="fill:#212931;fill-opacity:1;stroke-width:0.11042593"
     d="m 64.320996,69.774859 c -0.807393,-0.492364 -1.199968,-1.288078 -1.20603,-2.444508 -0.0052,-0.99148 0.26787,-1.643248 0.942629,-2.249915 0.323441,-0.290802 0.544173,-0.583197 0.544173,-0.720848 0,-0.215869 -0.05997,-0.231589 -0.883408,-0.231589 h -0.883407 v -2.650223 -2.650222 h 0.276064 0.276065 V 57.115952 55.40435 h 4.361825 4.361824 v -1.154244 -1.154244 l -2.880301,-0.03283 -2.8803,-0.03283 -0.322052,-0.360627 c -0.233613,-0.261594 -0.322165,-0.473863 -0.322465,-0.772981 -3.83e-4,-0.381562 -0.03571,-0.426866 -0.473052,-0.606668 -1.022071,-0.420199 -1.791903,-1.418776 -1.918622,-2.488713 -0.144477,-1.219882 0.601594,-2.494619 1.788731,-3.056224 l 0.603357,-0.285434 v -0.598912 c 0,-0.71015 0.151159,-1.087845 0.541543,-1.35313 0.266802,-0.181305 0.880012,-0.196885 8.855622,-0.225003 6.709048,-0.02365 8.661589,3.16e-4 8.995677,0.110426 0.601498,0.198244 0.931697,0.722413 0.931697,1.479007 v 0.587943 l 0.548128,0.235798 c 0.678429,0.291853 1.447226,1.095116 1.712214,1.788976 0.276046,0.722816 0.188601,1.770684 -0.203615,2.43995 -0.363774,0.620732 -1.093609,1.250817 -1.637636,1.413811 -0.336394,0.100786 -0.419091,0.178743 -0.419091,0.395067 0,0.417983 -0.302232,0.955874 -0.653771,1.163533 -0.277794,0.164098 -0.676317,0.188394 -3.090142,0.188394 h -2.771217 v 1.159472 1.159473 h 4.417037 4.417038 v 1.711602 c 0,1.637984 0.0095,1.711602 0.220852,1.711602 0.214716,0 0.220851,0.07362 0.220851,2.650222 v 2.650223 H 86.96302 86.134825 l 0.0042,0.303671 c 0.0031,0.224954 0.113504,0.379199 0.425897,0.59504 0.6589,0.455252 0.950236,1.161531 0.950236,2.303641 0,0.765722 -0.04847,1.037068 -0.263113,1.473066 -0.289501,0.588059 -0.995045,1.177156 -1.409839,1.177156 -0.228019,0 -0.259496,-0.05224 -0.259496,-0.430661 0,-0.342794 0.07684,-0.507497 0.376596,-0.807258 0.506748,-0.506747 0.682411,-1.167693 0.51233,-1.927693 -0.07038,-0.314491 -0.199797,-0.631419 -0.287593,-0.704283 -0.136681,-0.113434 -0.15963,-0.01941 -0.15963,0.654023 v 0.786502 h -0.563928 -0.563929 l 0.03944,-1.711602 0.03944,-1.711602 h -0.800624 -0.800626 v -2.650223 c 0,-2.576605 0.0061,-2.650222 0.220852,-2.650222 0.207467,0 0.220852,-0.07362 0.220852,-1.214686 v -1.214685 h -0.772982 -0.772981 v 4.08576 4.085759 h -6.956835 -6.956834 v -4.090805 -4.090805 l -0.745375,0.03265 -0.745375,0.03265 -0.03134,1.187079 c -0.02984,1.130318 -0.0206,1.187079 0.193245,1.187079 0.219583,0 0.224588,0.05895 0.224588,2.645384 v 2.645385 l -0.794565,0.03244 -0.794565,0.03244 0.03058,1.683995 0.03058,1.683996 H 65.21812 64.712209 v -0.772982 c 0,-0.466722 -0.04598,-0.772981 -0.11606,-0.772981 -0.194717,0 -0.436069,0.733411 -0.436069,1.325111 0,0.728417 0.239792,1.283274 0.657268,1.520859 0.290537,0.165343 0.335262,0.253237 0.335867,0.660053 6.18e-4,0.413404 -0.0289,0.469261 -0.24776,0.468897 -0.136652,-2.2e-4 -0.399651,-0.09261 -0.584443,-0.205301 z m 16.899875,-9.787833 v -3.53363 l -5.880181,-0.02857 -5.880181,-0.02857 v 3.590779 3.590779 l 5.880181,-0.02857 5.880181,-0.02857 z M 66.258157,61.47404 v -1.660124 l -1.187079,0.03134 -1.187079,0.03134 -0.03056,1.628783 -0.03056,1.628782 h 1.217637 1.217638 z m 20.539224,0.0037 v -1.656389 h -1.159472 -1.159473 v 1.656389 1.656389 h 1.159473 1.159472 z M 65.792582,57.640475 65.76124,56.453396 h -0.662556 -0.662555 l -0.03134,1.187079 -0.03134,1.187079 h 0.72524 0.725241 z m 20.452669,-0.02761 V 56.398183 H 85.582696 84.92014 v 1.214685 1.214686 h 0.662556 0.662555 z M 77.521602,54.30009 v -1.104259 h -2.153306 -2.153305 v 1.104259 1.10426 h 2.153305 2.153306 z m 6.378529,-6.10171 0.02904,-3.837979 -8.587049,0.02828 -8.587048,0.02828 -0.02913,3.698484 c -0.01602,2.034166 -0.005,3.761258 0.0244,3.837983 0.04262,0.111056 1.793493,0.133732 8.58714,0.111211 l 8.533607,-0.02829 z m -18.194104,0.304348 c 0,-1.304632 -0.03624,-1.822027 -0.127609,-1.822027 -0.24013,0 -0.834994,0.539345 -1.016324,0.921469 -0.265025,0.5585 -0.233047,1.365137 0.07424,1.87275 0.229193,0.378604 0.773858,0.847237 0.98687,0.849109 0.04555,4e-4 0.08282,-0.819185 0.08282,-1.821301 z m 20.080655,1.407931 c 0.404795,-0.386108 0.677214,-0.985802 0.678805,-1.494297 0.0017,-0.556691 -0.558794,-1.395961 -1.13125,-1.693776 l -0.303671,-0.157983 v 1.880077 c 0,2.133782 0.01846,2.16958 0.756116,1.465979 z"
     id="path4540"
     inkscape:connector-curvature="0" />
  <path
     style="fill:#212931;fill-opacity:1;stroke-width:0.11042593"
     d="m 69.957426,50.551066 c -1.853149,-0.441566 -2.52641,-2.703074 -1.191869,-4.003525 0.824453,-0.803392 1.7766,-0.960017 2.784077,-0.45797 1.361521,0.678474 1.731671,2.440753 0.760203,3.619312 -0.552177,0.669886 -1.560508,1.030877 -2.352411,0.842183 z m 1.158252,-1.164299 c 0.468298,-0.242166 0.663775,-0.58855 0.663775,-1.176201 0,-1.301272 -1.529721,-1.850727 -2.370543,-0.851466 -0.495788,0.58921 -0.306732,1.659864 0.356658,2.019815 0.39152,0.212437 0.948226,0.215674 1.35011,0.0079 z"
     id="path4542"
     inkscape:connector-curvature="0" />
  <path
     style="fill:#212931;fill-opacity:1;stroke-width:0.11042593"
     d="m 79.331999,50.532808 c -0.574956,-0.132287 -1.338584,-0.781161 -1.602119,-1.361361 -0.716632,-1.57774 0.489295,-3.374154 2.265058,-3.374154 0.957869,0 1.951271,0.771668 2.230671,1.732769 0.521023,1.792255 -1.053466,3.426128 -2.89361,3.002746 z m 1.527864,-1.397254 c 0.709182,-0.709181 0.430162,-1.89734 -0.51902,-2.210159 -1.04075,-0.342998 -2.033603,0.652066 -1.690211,1.693973 0.311893,0.946333 1.501203,1.224215 2.209231,0.516186 z"
     id="path4544"
     inkscape:connector-curvature="0" />
  <path
     style="fill:#212931;fill-opacity:1;stroke-width:0.11042593"
     d="M 78.772229,93.892302 C 78.099225,93.59956 78.024594,93.344948 77.963306,91.132564 l -0.05521,-1.99309 -0.303671,-0.03494 c -0.252544,-0.02906 -0.303672,-0.08825 -0.303672,-0.351549 0,-0.263303 0.05113,-0.322491 0.303672,-0.35155 0.296653,-0.03413 0.304421,-0.05344 0.336115,-0.835529 l 0.03244,-0.800588 h 0.376816 0.376815 l 0.03244,0.800588 0.03244,0.800588 0.966226,0.03191 0.966227,0.0319 v 0.326979 0.326979 h -0.993833 -0.993833 l 6.18e-4,1.573569 c 9.39e-4,2.411238 0.142903,2.686704 1.339947,2.600118 l 0.647101,-0.04681 v 0.352127 c 0,0.306042 -0.04516,0.36116 -0.345081,0.421144 -0.554247,0.110849 -1.228978,0.07217 -1.606644,-0.09211 z"
     id="path4546"
     inkscape:connector-curvature="0" />
  <path
     style="fill:#212931;fill-opacity:1;stroke-width:0.11042593"
     d="M 72.607648,93.875646 C 71.661433,93.360518 71.23,92.539323 71.228403,91.250378 c -0.0014,-1.115062 0.154888,-1.619607 0.689876,-2.227386 0.995175,-1.130578 2.945695,-1.040513 3.827464,0.176733 0.949691,1.311011 0.638166,3.698411 -0.588564,4.510522 -0.364466,0.24128 -0.579548,0.292652 -1.326622,0.316859 -0.659354,0.02137 -0.977932,-0.01809 -1.222909,-0.15146 z m 1.93776,-0.733607 c 0.640923,-0.431918 0.823462,-0.881104 0.818812,-2.014899 -0.0047,-1.137969 -0.176536,-1.585316 -0.74666,-1.943426 -0.275215,-0.17287 -0.493833,-0.213057 -0.98696,-0.181425 -1.083157,0.06948 -1.519869,0.688147 -1.519869,2.15312 0,0.675934 0.05398,0.970604 0.248459,1.356264 0.425582,0.843955 1.436667,1.135488 2.186218,0.630366 z"
     id="path4548"
     inkscape:connector-curvature="0" />
  <path
     style="fill:#212931;fill-opacity:1;stroke-width:0.11042593"
     d="m 66.371981,93.874192 c -0.258651,-0.11642 -0.396153,-0.133249 -0.4233,-0.05181 -0.02211,0.06634 -0.209986,0.120621 -0.417495,0.120621 H 65.153897 V 90.022881 86.10276 h 0.386491 0.386491 v 1.435538 c 0,0.789545 0.02264,1.435537 0.05031,1.435537 0.02767,0 0.233253,-0.12415 0.456852,-0.275888 0.933502,-0.633492 1.986082,-0.627678 2.697337,0.0149 0.591964,0.534804 0.825471,1.201877 0.82579,2.359082 2.32e-4,0.823417 -0.0404,1.019351 -0.331019,1.596379 -0.187265,0.371817 -0.51555,0.803694 -0.755163,0.993459 -0.379243,0.300346 -0.512982,0.338289 -1.269898,0.360278 -0.575786,0.01673 -0.968379,-0.0305 -1.229106,-0.147852 z m 1.896593,-0.77115 c 0.435839,-0.22538 0.640504,-0.592659 0.774792,-1.390392 0.157363,-0.934802 -0.03479,-1.882628 -0.469876,-2.317711 -0.425329,-0.42533 -1.249184,-0.435161 -2.0728,-0.02474 l -0.573811,0.285942 v 1.68405 1.68405 l 0.414097,0.125308 c 0.873251,0.26425 1.348844,0.252775 1.927598,-0.04651 z"
     id="path4550"
     inkscape:connector-curvature="0" />
  <path
     style="fill:#212931;fill-opacity:1;stroke-width:0.11042593"
     d="m 59.777446,93.844287 c -0.536468,-0.250157 -1.084196,-0.945863 -1.261488,-1.602299 -0.185818,-0.688009 -0.0723,-2.128921 0.210964,-2.677736 0.917339,-1.777335 3.522454,-1.777335 4.469156,0 0.20508,0.385017 0.244445,0.636248 0.245254,1.565255 8.5e-4,0.970997 -0.03361,1.173881 -0.281136,1.655378 -0.170976,0.332593 -0.468104,0.679483 -0.754299,0.880628 -0.409994,0.288155 -0.583764,0.335996 -1.319077,0.363156 -0.656699,0.02426 -0.950737,-0.01715 -1.309374,-0.184382 z m 1.907211,-0.63081 c 0.205608,-0.09757 0.486422,-0.358448 0.624032,-0.579736 0.214189,-0.344434 0.250199,-0.553325 0.250199,-1.451388 0,-1.197566 -0.164798,-1.634869 -0.750736,-1.992137 -0.468982,-0.285955 -1.237648,-0.282443 -1.713754,0.0078 -0.580397,0.353856 -0.829388,1.047147 -0.771586,2.148412 0.03553,0.676891 0.107822,0.999858 0.289679,1.29411 0.429119,0.694328 1.305617,0.936661 2.072166,0.57291 z"
     id="path4552"
     inkscape:connector-curvature="0" />
  <path
     style="fill:#212931;fill-opacity:1;stroke-width:0.11042593"
     d="m 54.332155,91.182353 v -2.760648 h 0.435038 c 0.416532,0 0.436496,0.01635 0.46931,0.384304 l 0.03427,0.384303 0.54038,-0.352473 c 0.428373,-0.279415 0.685869,-0.361738 1.242292,-0.397168 l 0.701911,-0.04469 v 0.434997 0.434996 l -0.690162,-0.006 c -0.560668,-0.0048 -0.798937,0.05393 -1.269898,0.313186 l -0.579736,0.319137 v 2.02533 2.02533 h -0.441704 -0.441704 z"
     id="path4554"
     inkscape:connector-curvature="0" />
  <path
     style="fill:#212931;fill-opacity:1;stroke-width:0.11042593"
     d="m 45.197346,95.910121 c 0.03277,-0.0798 0.264936,-0.603579 0.515916,-1.163953 l 0.456327,-1.018861 -0.959817,-2.293917 c -0.5279,-1.261654 -1.027498,-2.455414 -1.110218,-2.652801 l -0.150401,-0.358884 0.470792,0.0018 0.470793,0.0018 0.817367,1.98969 c 0.449552,1.094329 0.8549,2.012886 0.900773,2.041237 0.06996,0.04324 0.871228,-1.745493 1.597067,-3.565278 0.175363,-0.43966 0.214338,-0.46931 0.616903,-0.46931 0.236343,0 0.427422,0.03727 0.424621,0.08282 -0.0028,0.04555 -0.718759,1.747491 -1.591017,3.782089 l -1.585923,3.699269 -0.466386,0.03466 c -0.351154,0.0261 -0.451664,-0.0012 -0.406797,-0.110426 z"
     id="path4556"
     inkscape:connector-curvature="0" />
  <path
     style="fill:#212931;fill-opacity:1;stroke-width:0.11042593"
     d="m 38.099542,91.182353 v -2.760648 h 0.386491 c 0.33864,0 0.386491,0.03418 0.386491,0.276065 0,0.341286 0.01176,0.341118 0.564869,-0.008 0.24753,-0.156259 0.712686,-0.339195 1.03368,-0.406524 0.493457,-0.103504 0.662248,-0.09239 1.092527,0.07193 0.996077,0.380405 1.173832,0.943133 1.173832,3.716057 v 1.871806 h -0.441704 -0.441704 l -6.18e-4,-1.849635 c -8.81e-4,-2.65288 -0.151274,-3.010151 -1.266244,-3.00807 -0.41402,7.73e-4 -0.702558,0.08557 -1.134902,0.333511 l -0.579736,0.332476 v 2.095859 2.095859 h -0.386491 -0.386491 z"
     id="path4558"
     inkscape:connector-curvature="0" />
  <path
     style="fill:#212931;fill-opacity:1;stroke-width:0.11042593"
     d="m 35.228468,91.182353 v -2.760648 h 0.441704 0.441704 v 2.760648 2.760649 h -0.441704 -0.441704 z"
     id="path4560"
     inkscape:connector-curvature="0" />
  <path
     style="fill:#212931;fill-opacity:1;stroke-width:0.11042593"
     d="M 28.602912,90.022881 V 86.10276 h 0.441704 0.441703 v 1.435538 c 0,0.789545 0.02264,1.435537 0.05031,1.435537 0.02767,0 0.233254,-0.12415 0.456853,-0.275888 0.866455,-0.587992 1.956674,-0.622162 2.599255,-0.08146 0.588439,0.495139 0.648065,0.786769 0.648065,3.169667 v 2.156853 h -0.441704 -0.441703 v -2.048364 c 0,-2.63461 -0.0733,-2.810377 -1.172051,-2.810377 -0.524253,0 -1.178608,0.225814 -1.501737,0.518242 -0.176136,0.159402 -0.197287,0.401637 -0.197287,2.259521 v 2.080978 h -0.441703 -0.441704 z"
     id="path4562"
     inkscape:connector-curvature="0" />
  <path
     style="fill:#212931;fill-opacity:1;stroke-width:0.11042593"
     d="m 23.385286,93.864085 c -0.515617,-0.177641 -0.524523,-0.188713 -0.524523,-0.65213 v -0.47142 l 0.607014,0.2779 c 1.507874,0.690328 3.03586,0.268871 2.776189,-0.765742 -0.08299,-0.330639 -0.536197,-0.552283 -1.503246,-0.735168 -1.333465,-0.252179 -1.879957,-0.721405 -1.879957,-1.614159 0,-1.137813 1.248323,-1.842502 2.819324,-1.591534 1.087795,0.173776 1.266436,0.285233 1.266436,0.790154 0,0.233188 -0.01551,0.423978 -0.03447,0.423978 -0.01896,0 -0.254995,-0.106744 -0.524523,-0.23721 -0.716973,-0.347052 -1.818302,-0.39656 -2.284473,-0.102695 -0.28879,0.182047 -0.358884,0.298693 -0.358884,0.597232 0,0.503305 0.255392,0.702193 1.16773,0.909379 1.220405,0.277146 1.726252,0.510013 2.004373,0.922717 0.460051,0.682669 0.225059,1.570356 -0.551806,2.084461 -0.379942,0.251433 -0.569054,0.292909 -1.445886,0.317107 -0.709062,0.01957 -1.164611,-0.02585 -1.533296,-0.15287 z"
     id="path4564"
     inkscape:connector-curvature="0" />
  <path
     style="fill:#212931;fill-opacity:1;stroke-width:0.11042593"
     d="m 35.118042,86.875742 v -0.441704 h 0.496917 0.496917 v 0.441704 0.441704 h -0.496917 -0.496917 z"
     id="path4566"
     inkscape:connector-curvature="0" />
  <path
     style="fill:#212931;fill-opacity:1;stroke-width:0.11042593"
     d="m 86.917418,93.85312 c -0.286888,-0.141726 -0.387965,-0.153223 -0.4233,-0.04815 -0.02553,0.07592 -0.216199,0.138033 -0.423708,0.138033 H 85.693122 V 90.022881 86.10276 h 0.38649 0.386491 v 1.435538 c 0,0.789545 0.02264,1.435537 0.05031,1.435537 0.02767,0 0.233254,-0.12415 0.456852,-0.275888 0.909866,-0.617452 1.973707,-0.625568 2.663056,-0.02032 1.430832,1.256272 1.090275,4.412437 -0.560643,5.195849 -0.50009,0.237308 -1.658806,0.226379 -2.158259,-0.02036 z m 1.922843,-0.777335 c 0.962137,-0.545946 1.099076,-3.060132 0.204981,-3.763427 -0.510434,-0.401508 -1.789791,-0.245663 -2.381852,0.290145 -0.171923,0.155588 -0.197287,0.381698 -0.197287,1.758719 0,1.762609 -0.02856,1.698306 0.849205,1.91186 0.516222,0.125592 1.085778,0.0519 1.524953,-0.197297 z"
     id="path4568"
     inkscape:connector-curvature="0" />
  <path
     style="fill:#212931;fill-opacity:1;stroke-width:0.11042593"
     d="m 78.184158,60.097452 v -1.822028 h 0.55213 0.552129 v 1.822028 1.822028 h -0.552129 -0.55213 z"
     id="path4570"
     inkscape:connector-curvature="0" />
  <path
     style="fill:#212931;fill-opacity:1;stroke-width:0.11042593"
     d="m 75.975639,60.097452 v -1.822028 h 0.496917 0.496917 v 1.822028 1.822028 h -0.496917 -0.496917 z"
     id="path4572"
     inkscape:connector-curvature="0" />
  <path
     style="fill:#212931;fill-opacity:1;stroke-width:0.11042593"
     d="m 73.656694,60.097452 v -1.822028 h 0.55213 0.55213 v 1.822028 1.822028 h -0.55213 -0.55213 z"
     id="path4574"
     inkscape:connector-curvature="0" />
  <path
     style="fill:#212931;fill-opacity:1;stroke-width:0.11042593"
     d="m 71.448176,60.097452 v -1.822028 h 0.496916 0.496917 v 1.822028 1.822028 h -0.496917 -0.496916 z"
     id="path4576"
     inkscape:connector-curvature="0" />
  <path
     style="fill:#212931;fill-opacity:1;stroke-width:0.11042593"
     d="m 69.984582,72.848946 c -1.127782,-0.284184 -2.286669,-1.246405 -2.755215,-2.287648 -0.182081,-0.404637 -0.238425,-0.754106 -0.244958,-1.519345 -0.0073,-0.85379 0.03252,-1.081283 0.282507,-1.614428 0.393947,-0.84017 0.949314,-1.426051 1.77747,-1.875131 0.655914,-0.355679 0.750056,-0.375349 1.796447,-0.375349 1.046391,0 1.140533,0.01967 1.796447,0.375349 0.828156,0.44908 1.383524,1.034961 1.77747,1.875131 0.248541,0.530063 0.290328,0.765574 0.286448,1.614428 -0.0039,0.845564 -0.04852,1.084649 -0.299286,1.602561 -0.786584,1.624517 -2.776937,2.617786 -4.41733,2.204432 z m 2.015723,-1.220918 c 2.172225,-0.983289 2.3035,-3.952096 0.226055,-5.11229 -0.508438,-0.283948 -0.723235,-0.336945 -1.380324,-0.340568 -0.671542,-0.0037 -0.861012,0.04269 -1.382587,0.338525 -1.714335,0.972369 -2.006052,3.241351 -0.590412,4.592235 0.776627,0.7411 2.140457,0.968792 3.127268,0.522098 z"
     id="path4578"
     inkscape:connector-curvature="0" />
  <path
     style="fill:#212931;fill-opacity:1;stroke-width:0.05521297"
     d="m 70.16771,71.148513 c -0.602682,-0.199971 -1.10367,-0.643839 -1.371467,-1.215102 -0.131151,-0.279768 -0.146889,-0.378415 -0.146889,-0.920684 0,-0.542269 0.01574,-0.640916 0.146889,-0.920684 0.719707,-1.53527 2.761043,-1.764534 3.82567,-0.429663 0.872043,1.093401 0.453729,2.775139 -0.840989,3.381011 -0.4722,0.220969 -1.134082,0.264099 -1.613214,0.105122 z m 1.197242,-0.690646 c 0.329444,-0.121462 0.648458,-0.395661 0.818032,-0.703116 0.145588,-0.263966 0.165523,-0.353789 0.164683,-0.742024 -7.46e-4,-0.344726 -0.02705,-0.490834 -0.1198,-0.665477 -0.168095,-0.316508 -0.438894,-0.568669 -0.782611,-0.728746 -0.254739,-0.118638 -0.352104,-0.134266 -0.698129,-0.11206 -0.619921,0.03978 -1.054589,0.339473 -1.30382,0.898941 -0.331413,0.743946 0.0069,1.641057 0.75201,1.993888 0.309039,0.146347 0.857145,0.173805 1.169635,0.05859 z"
     id="path4580"
     inkscape:connector-curvature="0" />
  <path
     style="fill:#212931;fill-opacity:1;stroke-width:0.05521297"
     d="M 70.389876,69.803084 C 69.808789,69.4082 69.78631,68.663251 70.34304,68.250916 c 0.223349,-0.165421 0.639133,-0.18662 0.91363,-0.04658 0.588467,0.300213 0.666427,1.138548 0.143005,1.537782 -0.280108,0.213648 -0.743917,0.241652 -1.009799,0.06097 z"
     id="path4582"
     inkscape:connector-curvature="0" />
  <path
     style="fill:#212931;fill-opacity:1;stroke-width:0.05521297"
     d="m 78.366836,72.882235 c -1.478623,-0.34217 -2.604579,-1.4093 -3.006662,-2.849579 -0.155021,-0.555289 -0.158536,-1.409224 -0.0082,-1.993645 0.502312,-1.952814 2.437134,-3.235525 4.406446,-2.921302 2.102068,0.335406 3.562309,2.245252 3.324515,4.348125 -0.101113,0.894166 -0.484252,1.673495 -1.15033,2.339842 -0.737754,0.738052 -1.567802,1.095803 -2.62714,1.132297 -0.39422,0.01358 -0.723592,-0.006 -0.938621,-0.05574 z m 1.640753,-1.135651 c 0.731968,-0.226082 1.39729,-0.805755 1.730765,-1.50796 0.901465,-1.898227 -0.469824,-4.068054 -2.57093,-4.068054 -1.399148,0 -2.58188,0.999344 -2.81824,2.38126 -0.232279,1.358051 0.598245,2.723408 1.933558,3.17871 0.481546,0.164194 1.22287,0.171089 1.724847,0.01604 z"
     id="path4584"
     inkscape:connector-curvature="0" />
  <path
     style="fill:#212931;fill-opacity:1;stroke-width:0.05521297"
     d="m 78.520662,71.171861 c -1.052423,-0.342972 -1.754951,-1.462795 -1.566019,-2.496222 0.138548,-0.757835 0.703725,-1.47639 1.368874,-1.740359 0.453691,-0.18005 1.234124,-0.18005 1.687814,0 0.665149,0.263969 1.230327,0.982524 1.368875,1.740359 0.1687,0.922763 -0.36662,1.923291 -1.265901,2.366006 -0.308092,0.151672 -0.423428,0.177284 -0.858444,0.190626 -0.317035,0.0097 -0.588417,-0.01257 -0.735199,-0.06041 z m 1.281711,-0.770983 c 0.523913,-0.245056 0.911014,-0.834899 0.911014,-1.388151 0,-0.559296 -0.417448,-1.178464 -0.948578,-1.40695 -0.363146,-0.156221 -0.941922,-0.137618 -1.291313,0.04151 -0.638923,0.327559 -0.975834,1.104578 -0.776399,1.79061 0.254775,0.876395 1.283949,1.347154 2.105276,0.962985 z"
     id="path4586"
     inkscape:connector-curvature="0" />
  <path
     style="fill:#212931;fill-opacity:1;stroke-width:0.05521297"
     d="m 78.698114,69.789798 c -0.517082,-0.311155 -0.605208,-0.991489 -0.180509,-1.39353 0.24651,-0.233358 0.382068,-0.294555 0.652475,-0.294555 0.497927,0 0.904414,0.407217 0.904414,0.906037 0,0.722119 -0.759155,1.153465 -1.37638,0.782048 z"
     id="path4588"
     inkscape:connector-curvature="0" />
  <path
     style="fill:#212931;fill-opacity:1;stroke-width:0.05521297"
     d="m 92.087259,91.180734 v -2.815861 h 0.46931 0.469311 v 0.412248 0.412248 l 0.35385,-0.247359 c 0.57019,-0.398591 0.930562,-0.539335 1.451282,-0.566799 0.248829,-0.01312 0.515922,-0.0079 0.59354,0.01156 0.137227,0.03444 0.141124,0.04812 0.141124,0.495319 v 0.4599 l -0.317474,-0.05176 c -0.687126,-0.112031 -1.281344,0.02861 -1.960061,0.463915 L 93.02588,89.92235 v 2.037124 2.037125 h -0.469311 -0.46931 z"
     id="path4590"
     inkscape:connector-curvature="0" />
  <path
     style="fill:#212931;fill-opacity:1;stroke-width:0.05521297"
     d="m 98.249104,94.016354 c -1.021996,-0.219121 -1.732822,-0.887372 -1.993277,-1.87389 -0.117851,-0.446382 -0.117272,-1.44723 0.0011,-1.906261 0.32391,-1.25605 1.326776,-2.036969 2.615903,-2.036969 1.52514,0 2.3732,0.959631 2.37869,2.691632 l 0.001,0.345081 h -2.098094 c -2.386301,0 -2.146606,-0.06186 -2.03794,0.525966 0.161062,0.871269 0.725143,1.395221 1.646678,1.529537 0.36,0.05247 0.507254,0.04803 0.886625,-0.0267 0.442331,-0.08714 1.199761,-0.400838 1.395451,-0.577934 0.0917,-0.08298 0.0969,-0.05971 0.0969,0.43587 v 0.523524 l -0.4279,0.148246 c -0.910453,0.315424 -1.698254,0.386337 -2.465189,0.221903 z m 2.100076,-3.698558 c -0.09,-0.656756 -0.380544,-1.091249 -0.850593,-1.272094 -0.381759,-0.146877 -1.055219,-0.130906 -1.433257,0.03399 -0.483879,0.211062 -0.87999,0.732458 -0.977484,1.286652 l -0.03642,0.207049 h 1.666395 1.666389 z"
     id="path4592"
     inkscape:connector-curvature="0" />
  <path
     style="fill:#212931;fill-opacity:1;stroke-width:0.05521297"
     d="m 103.7103,93.927579 c -0.0129,-0.03796 -0.33626,-1.261616 -0.71861,-2.719238 -0.38234,-1.457623 -0.70811,-2.693703 -0.72393,-2.746846 -0.0258,-0.08672 0.0195,-0.09662 0.44215,-0.09662 h 0.4709 l 0.054,0.207048 c 0.0297,0.113877 0.25533,1.06423 0.50138,2.111896 0.24605,1.047667 0.46163,1.942117 0.47907,1.987667 0.0332,0.08682 0.20086,-0.394619 0.98526,-2.829664 l 0.47576,-1.476947 h 0.38072 0.38072 l 0.69441,2.111896 c 0.83959,2.553427 0.74752,2.303379 0.79798,2.167109 0.0225,-0.06073 0.24962,-1.048356 0.50473,-2.194716 l 0.46383,-2.084289 h 0.46188 c 0.34618,0 0.45554,0.01729 0.43658,0.06902 -0.0139,0.03796 -0.34578,1.304867 -0.73748,2.815352 l -0.71218,2.746335 -0.4233,4.97e-4 -0.42331,5.23e-4 -0.72857,-2.185746 c -0.40072,-1.20216 -0.74579,-2.164936 -0.76682,-2.139503 -0.021,0.02543 -0.35507,1.00902 -0.74231,2.185746 l -0.70406,2.139503 h -0.41269 c -0.28085,0 -0.42018,-0.02205 -0.43612,-0.06902 z"
     id="path4594"
     inkscape:connector-curvature="0" />
  <path
     style="fill:#212931;fill-opacity:1;stroke-width:0.05521297"
     d="m 113.20622,94.068507 c -1.17681,-0.156082 -1.98038,-0.865903 -2.2691,-2.004365 -0.12678,-0.499903 -0.0827,-1.602487 0.0826,-2.066075 0.4358,-1.222288 1.43754,-1.869143 2.7616,-1.783244 0.68616,0.04452 1.05762,0.199524 1.47262,0.614528 0.48246,0.482455 0.68533,1.066345 0.68533,1.972428 v 0.434168 h -2.10147 -2.10148 l 0.036,0.262262 c 0.0851,0.619554 0.19676,0.890815 0.50868,1.236076 0.53316,0.59014 1.51644,0.744683 2.55263,0.401197 0.2285,-0.07575 0.53512,-0.211132 0.68138,-0.300859 0.14626,-0.08973 0.2767,-0.163139 0.28987,-0.163139 0.0132,0 0.0239,0.221564 0.0239,0.492364 v 0.492364 l -0.51072,0.167399 c -0.79669,0.26113 -1.43309,0.334928 -2.1119,0.244896 z m 1.83254,-3.810426 c -0.047,-0.455898 -0.28332,-0.886119 -0.59109,-1.076339 -0.66254,-0.409475 -1.6988,-0.283871 -2.21653,0.268661 -0.25201,0.268947 -0.54607,0.991362 -0.44477,1.09266 0.0167,0.01668 0.76261,0.03033 1.65763,0.03033 h 1.6273 z"
     id="path4596"
     inkscape:connector-curvature="0" />
  <path
     style="fill:#212931;fill-opacity:1;stroke-width:0.05521297"
     d="m 117.43001,91.180734 v -2.815861 h 0.44171 0.4417 v 0.377288 c 0,0.207509 0.0152,0.39253 0.0339,0.411158 0.0186,0.01863 0.16185,-0.06276 0.31827,-0.180859 0.49851,-0.376374 0.98663,-0.569989 1.5057,-0.597233 0.25021,-0.01313 0.51843,-0.0079 0.59604,0.01154 0.13766,0.03455 0.14113,0.04708 0.14113,0.509585 0,0.424074 -0.01,0.470351 -0.0941,0.438053 -0.25463,-0.09771 -0.96288,-0.100367 -1.31545,-0.0049 -0.35018,0.09479 -0.97681,0.445221 -1.11643,0.62435 -0.0523,0.06707 -0.069,0.567995 -0.069,2.065656 v 1.977114 h -0.4417 -0.44171 z"
     id="path4598"
     inkscape:connector-curvature="0" />
  <path
     style="fill:#ffffff;fill-opacity:0;stroke-width:0.05521297"
     d="m 122.5096,96.005876 c 0,-0.02084 0.22594,-0.541067 0.50208,-1.156048 l 0.50207,-1.118148 -1.10942,-2.651786 c -0.61017,-1.458482 -1.10941,-2.666014 -1.10941,-2.683404 0,-0.01739 0.2174,-0.03096 0.48311,-0.03015 l 0.48312,0.0015 0.74235,1.806762 c 0.40829,0.993719 0.80152,1.942225 0.87384,2.107791 l 0.1315,0.30103 0.87587,-2.095451 0.87588,-2.095452 0.4726,-0.01595 c 0.25993,-0.0088 0.4726,-0.0082 0.4726,0.0012 0,0.0094 -0.73069,1.73099 -1.62375,3.825648 l -1.62375,3.808469 -0.47434,0.01595 c -0.26089,0.0088 -0.47435,-0.0011 -0.47435,-0.02195 z"
     id="path4600"
     inkscape:connector-curvature="0" />
  <path
     style="fill:#ffffff;fill-opacity:0;stroke-width:0.05521297"
     d="M -0.00797314,75.003334 V 0.02412249 H 74.998845 150.00566 V 75.003334 149.98255 H 74.998845 -0.00797314 Z M 47.762693,92.208882 c 0.904717,-2.122005 1.644941,-3.867425 1.644941,-3.878711 0,-0.01128 -0.232559,-0.02051 -0.516797,-0.02051 h -0.516798 l -0.844502,2.017316 c -0.464477,1.109527 -0.862862,2.028668 -0.885301,2.042538 -0.02244,0.01387 -0.421812,-0.893926 -0.887496,-2.017322 L 44.910042,88.30966 h -0.545366 c -0.414572,0 -0.538581,0.01655 -0.517076,0.06902 0.01556,0.03796 0.526095,1.255736 1.134523,2.706175 l 1.106233,2.637159 -0.498831,1.117323 c -0.274357,0.614526 -0.511948,1.149319 -0.527979,1.188421 -0.02286,0.05575 0.08799,0.06767 0.513529,0.05521 l 0.542676,-0.01588 z m 77.356507,0.03206 c 0.90299,-2.11956 1.6418,-3.871191 1.6418,-3.892515 0,-0.02132 -0.22982,-0.03872 -0.51072,-0.03865 h -0.51072 l -0.85096,2.042764 c -0.46803,1.123517 -0.86619,2.042764 -0.88481,2.042764 -0.0186,0 -0.29245,-0.627358 -0.60853,-1.394128 -0.31608,-0.76677 -0.69705,-1.686066 -0.84659,-2.04288 l -0.27189,-0.648752 h -0.51854 c -0.32177,0 -0.51853,0.02177 -0.51853,0.05735 0,0.03154 0.4996,1.250132 1.11021,2.707969 l 1.11023,2.650615 -0.25125,0.563404 c -0.13817,0.309866 -0.37566,0.842914 -0.52775,1.184545 l -0.27652,0.621145 h 0.53638 0.53638 l 1.64181,-3.853743 z m -99.542337,1.83884 c 0.688039,-0.145768 1.163103,-0.459046 1.458771,-0.961981 0.131917,-0.224391 0.148735,-0.309397 0.148384,-0.749991 -4.42e-4,-0.577776 -0.10649,-0.841418 -0.453509,-1.127648 -0.277956,-0.22926 -0.610446,-0.347074 -1.542635,-0.546591 -0.936471,-0.20044 -1.209132,-0.324636 -1.325825,-0.60392 -0.417322,-0.998791 1.165341,-1.403293 2.627391,-0.671517 0.23805,0.11915 0.448323,0.216634 0.467274,0.216634 0.01895,0 0.03445,-0.232264 0.03445,-0.516136 V 88.602493 L 26.78412,88.51095 c -0.954577,-0.422059 -2.418691,-0.424566 -3.140747,-0.0054 -0.310722,0.180392 -0.702979,0.629058 -0.782753,0.895317 -0.103045,0.343933 -0.08035,0.886262 0.04904,1.171498 0.259204,0.571443 0.619537,0.766284 1.936307,1.046992 0.414412,0.08835 0.857305,0.213597 0.984207,0.278334 0.429897,0.219317 0.498908,0.729121 0.146415,1.081617 -0.225867,0.225865 -0.492647,0.29879 -1.094464,0.299177 -0.587787,5.52e-4 -1.169833,-0.167853 -1.71193,-0.494808 -0.203039,-0.122457 -0.382945,-0.222652 -0.399792,-0.222652 -0.01685,0 -0.03063,0.247818 -0.03063,0.550711 0,0.633801 -0.03331,0.593407 0.683607,0.829006 0.687049,0.225788 1.497086,0.278075 2.153486,0.13901 z m 36.19158,-0.02157 c 0.870223,-0.270841 1.435372,-0.880774 1.697837,-1.832375 0.138265,-0.501284 0.138679,-1.665758 7.73e-4,-2.118869 -0.338389,-1.111702 -1.012771,-1.738005 -2.064401,-1.917215 -1.161091,-0.197861 -2.264428,0.348377 -2.74488,1.358929 -0.247437,0.520448 -0.328186,0.931089 -0.326358,1.659658 0.0037,1.467936 0.598116,2.442108 1.724394,2.826009 0.480497,0.163778 1.22956,0.174214 1.712646,0.02386 z m 6.470596,0.01497 c 1.1075,-0.328848 1.814452,-1.489762 1.817285,-2.984217 0.0036,-1.890376 -0.935225,-3.048821 -2.373263,-2.928496 -0.442704,0.03704 -0.877704,0.195664 -1.319292,0.481076 l -0.337031,0.217832 v -1.37912 -1.379121 h -0.497281 -0.497282 l 0.01417,3.961531 0.01417,3.96153 0.428027,0.01613 c 0.407257,0.01534 0.430998,0.0096 0.489336,-0.118438 l 0.06131,-0.134565 0.304097,0.134483 c 0.167251,0.07397 0.394276,0.155827 0.504492,0.18191 0.34168,0.08085 1.069961,0.06487 1.391262,-0.03053 z m 6.353698,-0.02 c 1.148789,-0.357002 1.771315,-1.376145 1.771801,-2.900624 5.52e-4,-1.036701 -0.265635,-1.764916 -0.847188,-2.31963 -0.395275,-0.377027 -0.783742,-0.560941 -1.363208,-0.645401 -1.162631,-0.169454 -2.241801,0.368221 -2.709168,1.349792 -0.45633,0.958381 -0.442582,2.385647 0.03201,3.322838 0.282833,0.558529 0.891247,1.053988 1.500649,1.222039 0.407345,0.112337 1.206448,0.09798 1.615101,-0.02901 z m 5.918262,-0.0233 0.285208,-0.06319 0.01603,-0.454364 c 0.0088,-0.249899 -0.0067,-0.454364 -0.03446,-0.454364 -0.02778,0 -0.156137,0.03727 -0.285241,0.08282 -0.130259,0.04596 -0.422098,0.08272 -0.655693,0.08262 -0.501698,0 -0.707852,-0.100383 -0.867081,-0.421176 -0.09649,-0.194383 -0.107511,-0.368557 -0.122716,-1.938974 l -0.01671,-1.725406 h 0.996743 0.996737 V 88.723757 88.30966 H 79.82998 78.836146 V 87.481465 86.653271 H 78.33923 77.842313 v 0.828194 0.828195 h -0.331278 -0.331278 v 0.414097 0.414097 h 0.327938 0.327943 l 0.01947,1.863438 c 0.01688,1.614654 0.03247,1.897592 0.116765,2.119262 0.129275,0.339951 0.422964,0.674017 0.718199,0.816936 0.420187,0.20341 1.152195,0.240552 1.820924,0.0924 z m 8.336722,0.02522 c 1.093211,-0.376122 1.750262,-1.49631 1.747827,-2.979828 -0.0018,-1.092526 -0.289161,-1.907735 -0.854708,-2.424611 -0.402281,-0.367663 -0.73224,-0.480789 -1.380456,-0.473285 -0.57347,0.0066 -0.920511,0.117161 -1.457391,0.464169 l -0.337031,0.217832 v -1.37912 -1.379121 H 86.068681 85.5714 l 0.01417,3.961531 0.01417,3.96153 0.428028,0.01613 c 0.407206,0.01534 0.431003,0.0096 0.489308,-0.118382 l 0.06129,-0.13451 0.256067,0.113562 c 0.638638,0.283226 1.456126,0.345799 2.013297,0.154105 z m 11.466269,-0.07942 c 0.25812,-0.07562 0.56248,-0.17672 0.67636,-0.224667 l 0.20705,-0.08718 v -0.523783 c 0,-0.288079 -0.0152,-0.523784 -0.0338,-0.523784 -0.0186,0 -0.25308,0.109769 -0.52108,0.243926 -1.161485,0.581442 -2.357999,0.531861 -2.996615,-0.124169 -0.266871,-0.274154 -0.47847,-0.754352 -0.494062,-1.121226 l -0.01258,-0.296035 2.092687,-0.01448 2.09269,-0.01447 -0.0356,-0.592871 c -0.0569,-0.9482 -0.26083,-1.501655 -0.70814,-1.922008 -0.4199,-0.394601 -0.805227,-0.556618 -1.455498,-0.611997 -1.42079,-0.121004 -2.601232,0.721043 -2.922715,2.084864 -0.107395,0.455612 -0.107328,1.410526 0,1.866408 0.243484,1.032952 1.030556,1.758097 2.13751,1.969325 0.569411,0.108654 1.387154,0.06397 1.973663,-0.107853 z m 14.68665,0 c 0.25812,-0.07562 0.56248,-0.17672 0.67636,-0.224667 l 0.20705,-0.08718 v -0.523783 c 0,-0.288079 -0.0232,-0.523784 -0.0516,-0.523784 -0.0283,0 -0.17121,0.07341 -0.31747,0.163138 -0.61813,0.379203 -1.55018,0.570184 -2.18182,0.447071 -0.87137,-0.169841 -1.38135,-0.727056 -1.50596,-1.645452 l -0.0393,-0.289868 h 2.11148 2.11147 l -0.0318,-0.621146 c -0.0662,-1.295517 -0.51814,-2.028872 -1.46364,-2.375289 -0.47317,-0.173369 -1.39346,-0.169742 -1.90776,0.0075 -0.75383,0.259804 -1.39326,0.924403 -1.64118,1.705771 -0.18292,0.576506 -0.20936,1.513796 -0.0594,2.106706 0.34871,1.378955 1.431,2.091236 3.07208,2.021816 0.36623,-0.01549 0.71014,-0.06964 1.02144,-0.160841 z m -85.469675,-2.068316 0.02761,-2.116838 0.138032,-0.111729 c 0.07592,-0.06145 0.311953,-0.200373 0.524523,-0.308717 0.340919,-0.173761 0.445084,-0.199446 0.883408,-0.217838 0.572334,-0.02401 0.799992,0.05722 1.000048,0.356831 0.177029,0.265121 0.200929,0.528443 0.236919,2.610276 l 0.03293,1.904847 h 0.46931 0.469311 l 0.01578,-1.96006 c 0.02024,-2.514349 -0.03083,-2.836489 -0.536648,-3.38524 -0.663724,-0.720054 -1.945277,-0.698102 -2.998956,0.05137 l -0.262262,0.186548 v -1.407842 -1.407837 h -0.496916 -0.496917 v 3.938523 c 0,2.166193 0.01749,3.956015 0.03886,3.977388 0.02137,0.02137 0.238773,0.03172 0.483113,0.023 l 0.444254,-0.01585 z m 6.612251,-0.742515 0.0143,-2.859353 -0.511218,0.01588 -0.511218,0.01588 -0.01436,2.788255 c -0.0079,1.53354 -0.0021,2.820284 0.0129,2.859436 0.02006,0.05236 0.155221,0.06696 0.511282,0.05521 l 0.484016,-0.01597 z m 2.816027,0.739252 c 0.01323,-1.938511 0.02269,-2.126367 0.110426,-2.193264 0.05278,-0.04024 0.294726,-0.177857 0.537663,-0.305808 0.390245,-0.205541 0.493966,-0.235417 0.890304,-0.256475 0.531644,-0.02824 0.791686,0.04339 0.983008,0.270759 0.245844,0.29217 0.266073,0.465893 0.301546,2.58961 l 0.03366,2.015273 h 0.46931 0.46931 l 0.01578,-1.96006 c 0.02024,-2.514349 -0.03083,-2.836489 -0.536647,-3.38524 -0.663725,-0.720054 -1.945278,-0.698102 -2.998956,0.05137 L 38.972383,88.91682 V 88.613237 88.30966 h -0.496917 -0.496917 v 2.834264 c 0,1.55885 0.01749,2.851755 0.03886,2.873128 0.02137,0.02137 0.238774,0.03172 0.483114,0.023 l 0.444253,-0.01585 z m 16.287836,0.09594 0.01448,-2.024157 0.298785,-0.198325 c 0.562875,-0.373615 0.773219,-0.441086 1.383858,-0.443912 0.303672,-0.0014 0.632879,0.01546 0.731572,0.03748 l 0.179442,0.04003 V 88.8914 88.371636 l -0.255895,-0.03837 c -0.665449,-0.09979 -1.375245,0.09639 -2.017063,0.557491 -0.146899,0.10554 -0.27946,0.191887 -0.294572,0.191887 -0.01511,0 -0.02748,-0.17392 -0.02748,-0.38649 V 88.30966 h -0.496917 -0.496917 v 2.834264 c 0,1.55885 0.01749,2.851755 0.03886,2.873128 0.02137,0.02137 0.238774,0.03172 0.483114,0.023 l 0.444253,-0.01585 z m 37.778905,0.02269 v -2.029077 l 0.262152,-0.1773 c 0.144188,-0.09752 0.411231,-0.246592 0.593434,-0.331277 0.289244,-0.134444 0.397826,-0.153978 0.855801,-0.153978 0.288488,0 0.605272,0.01802 0.703965,0.04003 l 0.179443,0.04003 V 88.8914 88.371636 l -0.254063,-0.0381 c -0.634369,-0.09513 -1.281526,0.07386 -1.918292,0.50092 -0.203531,0.136503 -0.381891,0.248182 -0.396351,0.248182 -0.01447,0 -0.0263,-0.17392 -0.0263,-0.38649 V 88.30966 H 92.528856 92.03194 v 2.834264 c 0,1.55885 0.01656,2.850833 0.03681,2.871074 0.02024,0.02025 0.243854,0.03681 0.496917,0.03681 h 0.460106 v -2.029077 z m 12.279156,-0.151836 c 0.39168,-1.184318 0.72206,-2.12846 0.73419,-2.098093 0.0121,0.03037 0.34045,0.999355 0.72962,2.153306 l 0.70757,2.098093 0.41312,0.01597 c 0.28729,0.0111 0.43051,-0.0057 0.47023,-0.05521 0.0314,-0.03915 0.37218,-1.288632 0.75726,-2.776621 0.38508,-1.48799 0.71275,-2.748916 0.72815,-2.802059 0.0252,-0.08692 -0.0217,-0.09662 -0.46673,-0.09662 -0.34516,0 -0.50257,0.02087 -0.52066,0.06902 -0.0143,0.03796 -0.23304,0.994557 -0.48618,2.125771 -0.25315,1.13122 -0.47791,2.038093 -0.49948,2.015273 -0.0216,-0.02281 -0.34471,-0.979411 -0.7181,-2.125771 l -0.6789,-2.084289 h -0.41686 -0.41686 l -0.68749,2.132385 c -0.48776,1.512896 -0.69999,2.102367 -0.73054,2.029077 -0.0408,-0.09794 -0.9832,-4.053344 -0.9832,-4.126711 0,-0.01911 -0.23604,-0.03475 -0.52452,-0.03475 -0.28849,0 -0.52453,0.01045 -0.52453,0.02322 0,0.07057 1.44264,5.491327 1.48955,5.597027 0.0526,0.118443 0.0836,0.125521 0.48419,0.110426 l 0.42803,-0.01613 z m 13.05036,0.135498 0.0145,-2.017802 0.36514,-0.240071 c 0.53782,-0.353595 0.92752,-0.461763 1.53837,-0.427012 0.2733,0.01555 0.5404,0.04536 0.59354,0.06625 0.0879,0.03456 0.0966,-0.0095 0.0966,-0.489071 v -0.527052 l -0.25589,-0.03837 c -0.66545,-0.09979 -1.37525,0.09639 -2.01707,0.557491 -0.1469,0.10554 -0.27946,0.191887 -0.29457,0.191887 -0.0151,0 -0.0275,-0.17392 -0.0275,-0.38649 V 88.30966 h -0.49691 -0.49692 v 2.834264 c 0,1.55885 0.0175,2.851755 0.0389,2.873128 0.0214,0.02137 0.23877,0.03172 0.48311,0.023 l 0.44426,-0.01585 z m -82.155497,-5.118468 0.01587,-0.51072 H 35.63407 35.052262 v 0.487713 c 0,0.268246 0.0174,0.505121 0.03867,0.526389 0.02127,0.02127 0.27594,0.03163 0.565933,0.02301 l 0.527258,-0.01567 z M 55.039357,77.515524 V 76.991001 H 53.024084 51.00881 V 57.99774 39.004479 h 2.017346 2.017345 l -0.01588,-0.51072 -0.01588,-0.51072 h -2.51219 -2.51219 l -0.01388,20.028504 -0.01388,20.028505 h 2.539872 2.539872 z M 100.0242,58.011543 100.01032,37.983039 h -2.51219 -2.51219 l -0.01587,0.51072 -0.01588,0.51072 h 2.017349 2.017344 V 57.99774 76.991001 H 96.97361 94.958336 v 0.524523 0.524524 h 2.539874 2.53987 z M 71.962132,72.848146 c 1.036342,-0.320263 1.844892,-0.968916 2.372048,-1.902965 0.867943,-1.537874 0.574894,-3.528865 -0.702115,-4.770279 -0.531044,-0.516236 -1.09425,-0.837349 -1.811157,-1.032626 -0.444254,-0.121016 -1.445652,-0.135758 -1.870096,-0.02754 -1.398357,0.356555 -2.481807,1.355655 -2.909829,2.683301 -0.207722,0.644313 -0.241203,1.494449 -0.08376,2.126803 0.380025,1.526374 1.579085,2.694062 3.092097,3.011194 0.512272,0.107378 1.415186,0.06589 1.912815,-0.08789 z m 8.337158,0 c 0.683796,-0.211317 1.114507,-0.4755 1.660249,-1.018348 0.819713,-0.81538 1.183219,-1.680832 1.183219,-2.817071 0,-1.118537 -0.36525,-1.998003 -1.157993,-2.788255 -0.522198,-0.520559 -0.901583,-0.768261 -1.490181,-0.972957 -0.865568,-0.301016 -1.788751,-0.301016 -2.654319,0 -0.586633,0.204012 -0.96546,0.451371 -1.490049,0.972957 -0.792538,0.787994 -1.158125,1.668172 -1.158125,2.788255 0,1.118195 0.364295,1.998224 1.156286,2.793252 0.635645,0.638085 1.312048,1.004721 2.128885,1.15394 0.446259,0.08152 1.382356,0.0241 1.822028,-0.111773 z M 65.198543,69.514033 v -0.575352 l -0.156827,-0.03444 c -0.209953,-0.04611 -0.526643,-0.3805 -0.68162,-0.719706 -0.10559,-0.231116 -0.126256,-0.370457 -0.126907,-0.855801 -7.18e-4,-0.53449 0.01214,-0.605593 0.16481,-0.911014 l 0.165595,-0.331278 0.02761,0.745375 0.02761,0.745375 0.570212,0.01578 0.570217,0.01579 -0.01809,-1.686011 -0.01808,-1.68601 0.814392,3.3e-5 0.814391,3.8e-5 V 61.476157 58.715508 H 67.130997 66.910145 V 57.611249 56.50699 h 0.717415 0.71741 l 0.01416,4.071956 0.01416,4.071957 h 6.98444 6.984441 l 0.01416,-4.071957 0.01416,-4.071956 h 0.689803 0.689809 v 1.100924 1.10093 l -0.207049,0.01713 -0.207049,0.01714 -0.01432,2.746845 -0.01432,2.746845 h 0.820813 0.820813 l -0.01905,0.648753 c -0.01048,0.356814 -0.02862,1.102509 -0.04031,1.657096 -0.02476,1.174644 -0.08781,1.077563 0.682499,1.050829 l 0.46931,-0.01629 0.02761,-0.743338 c 0.0265,-0.713583 0.03124,-0.737783 0.118316,-0.604504 0.289521,0.443106 0.358658,1.295103 0.150296,1.852008 -0.139308,0.372334 -0.486383,0.771762 -0.714064,0.821768 l -0.16189,0.03556 v 0.575352 0.575347 h 0.191175 c 0.768007,0 1.614134,-0.822485 1.881845,-1.829261 0.287638,-1.081721 0.04222,-2.292536 -0.612218,-3.02042 -0.13801,-0.153497 -0.343016,-0.335038 -0.455567,-0.403424 -0.256691,-0.155949 -0.285578,-0.198281 -0.286622,-0.420027 l -8.45e-4,-0.179443 h 0.855801 0.855801 v -2.757473 -2.757474 l -0.234655,-0.01698 -0.234655,-0.01698 -0.01461,-1.670192 -0.01461,-1.670193 h -4.388625 -4.388619 v -1.076653 -1.076652 h 2.564686 c 1.645518,0 2.66545,-0.02161 2.845842,-0.0603 0.582834,-0.124996 1.049389,-0.700503 1.049389,-1.294444 0,-0.290099 0.0021,-0.293759 0.207049,-0.359281 0.780711,-0.249602 1.539188,-0.879433 1.90821,-1.584552 0.46322,-0.885106 0.475681,-1.830263 0.03627,-2.750967 -0.325878,-0.68282 -1.127167,-1.376284 -1.857232,-1.607321 l -0.285445,-0.09033 -0.01823,-0.644683 C 85.04871,44.196668 85.03749,44.141314 84.880509,43.887667 84.777106,43.7206 84.61038,43.553982 84.443139,43.450582 l -0.270267,-0.167098 -8.75559,-0.01511 c -9.724069,-0.01678 -9.009718,-0.04364 -9.406987,0.353634 -0.32336,0.323358 -0.390792,0.522621 -0.41556,1.228029 -0.01982,0.564441 -0.03286,0.630756 -0.128922,0.655879 -0.400228,0.104661 -0.920566,0.432885 -1.315979,0.830107 -0.609386,0.612179 -0.937042,1.369236 -0.937042,2.16509 0,1.109384 0.717642,2.229853 1.763442,2.753291 0.250771,0.125515 0.490341,0.22821 0.532374,0.22821 0.05329,0 0.07643,0.07217 0.07643,0.238437 0,0.580321 0.306741,1.091159 0.802962,1.33722 0.206651,0.102473 0.365687,0.109241 2.937717,0.125017 l 2.719238,0.01668 v 1.073777 1.073776 h -4.361824 -4.361825 v 1.683996 1.683995 h -0.276065 -0.276064 v 2.760649 2.760648 h 0.883407 0.883408 v 0.145834 c 0,0.09833 -0.06419,0.201743 -0.19705,0.317475 -0.639918,0.557414 -0.744569,0.672682 -0.928539,1.022782 -0.272735,0.519012 -0.380406,0.976054 -0.378308,1.605836 0.0019,0.582358 0.109581,1.080269 0.327408,1.514414 0.362473,0.72244 1.030599,1.231045 1.631996,1.242342 l 0.207048,0.0039 v -0.575347 z"
     id="path4602"
     inkscape:connector-curvature="0" />
  <path
     style="fill:#212931;fill-opacity:1;stroke-width:0.05521297"
     d="m 122.5096,96.005876 c 0,-0.02084 0.22594,-0.541067 0.50208,-1.156048 l 0.50207,-1.118148 -1.10942,-2.651786 c -0.61017,-1.458482 -1.10941,-2.666014 -1.10941,-2.683404 0,-0.01739 0.2174,-0.03096 0.48311,-0.03015 l 0.48312,0.0015 0.74235,1.806762 c 0.40829,0.993719 0.80152,1.942225 0.87384,2.107791 l 0.1315,0.30103 0.87587,-2.095451 0.87588,-2.095452 0.4726,-0.01595 c 0.25993,-0.0088 0.4726,-0.0082 0.4726,0.0012 0,0.0094 -0.73069,1.73099 -1.62375,3.825648 l -1.62375,3.808469 -0.47434,0.01595 c -0.26089,0.0088 -0.47435,-0.0011 -0.47435,-0.02195 z"
     id="path4604"
     inkscape:connector-curvature="0" />
</svg>
